<svg width="66" height="66" viewBox="0 0 66 66" fill="none" xmlns="http://www.w3.org/2000/svg">
<g clip-path="url(#clip0_309_37)">
<path d="M55.5745 46.2052C55.2042 43.8125 53.9834 41.6334 52.136 40.0674C50.2886 38.5014 47.9384 37.6534 45.5163 37.679C43.7064 37.6726 41.9273 38.1475 40.3616 39.0551C38.7959 39.9626 37.4999 41.2701 36.6066 42.8435C36.1907 42.7015 35.7549 42.6265 35.3154 42.6212C34.5089 42.6166 33.7196 42.8536 33.049 43.3016C32.3785 43.7496 31.8575 44.388 31.5533 45.1346C29.8188 45.5354 28.2926 46.5606 27.2662 48.0146C26.2398 49.4685 25.785 51.2494 25.9887 53.0171C26.1923 54.7849 27.0401 56.4159 28.3702 57.5986C29.7003 58.7814 31.4196 59.4332 33.1998 59.4295H52.586C53.5146 59.45 54.4381 59.2871 55.3035 58.95C56.1689 58.613 56.9592 58.1084 57.6291 57.4654C58.299 56.8223 58.8352 56.0533 59.2071 55.2026C59.5789 54.3519 59.7791 53.4362 59.796 52.508C59.7843 51.1603 59.3784 49.8455 58.6283 48.7255C57.8782 47.6056 56.8166 46.7295 55.5745 46.2052ZM52.528 57.0128H34.2975L33.1853 57.0055C32.0023 57.0029 30.8616 56.5657 29.9799 55.7773C29.0983 54.9888 28.5373 53.904 28.4035 52.7291C28.2698 51.5543 28.5727 50.3712 29.2546 49.405C29.9366 48.4387 30.95 47.7567 32.1021 47.4885L33.3256 47.2033L33.797 46.0408C33.9205 45.7409 34.1313 45.4849 34.402 45.3061C34.6727 45.1273 34.991 45.0338 35.3154 45.0379C35.5011 45.0439 35.6847 45.0789 35.8595 45.1418L37.7381 45.7508L38.7101 44.0325C39.395 42.8334 40.3858 41.8373 41.5815 41.1457C42.7771 40.4541 44.1349 40.0918 45.5163 40.0957C47.3546 40.0777 49.1386 40.7187 50.5447 41.9025C51.9509 43.0863 52.8861 44.7345 53.1808 46.5483L53.3743 47.8824L54.6074 48.4213C55.4176 48.7589 56.1115 49.3258 56.6038 50.0522C57.096 50.7787 57.3652 51.6331 57.3782 52.5104C57.3618 53.1262 57.2227 53.7325 56.969 54.2938C56.7153 54.8552 56.3521 55.3603 55.9006 55.7795C55.4492 56.1988 54.9185 56.5239 54.3399 56.7356C53.7612 56.9474 53.146 57.0416 52.5304 57.0128H52.528ZM31.9909 8.67822C20.5787 8.67822 9.02148 11.1675 9.02148 15.9284V46.3308C9.02148 50.2943 15.4916 52.8439 23.5285 53.8783V51.4471C15.8881 50.4175 11.4393 48.1096 11.4393 46.3284V31.2287C15.4118 33.8823 23.7268 35.2622 31.9909 35.2622C40.2551 35.2622 48.57 33.8847 52.5425 31.2263V37.4324C53.4326 38.0173 54.245 38.7124 54.9604 39.5012V15.9284C54.9604 11.1675 43.4031 8.67822 31.9909 8.67822ZM52.5425 27.6447C52.5425 29.7666 44.5371 32.8455 31.9909 32.8455C19.4448 32.8455 11.4393 29.7666 11.4393 27.6447V19.336C15.4118 21.8663 23.7268 23.1786 31.9909 23.1786C40.2551 23.1786 48.57 21.8663 52.5425 19.3384V27.6447ZM31.9909 20.7619C18.6928 20.7619 11.4393 17.5694 11.4393 15.9284C11.4393 14.2874 18.6928 11.095 31.9909 11.095C45.289 11.095 52.5425 14.2874 52.5425 15.9284C52.5425 17.5694 45.289 20.7619 31.9909 20.7619Z" fill="#7A4FF6"/>
</g>
<defs>
<clipPath id="clip0_309_37">
<rect width="58.0281" height="58.0015" fill="white" transform="translate(4.18555 3.84473)"/>
</clipPath>
</defs>
</svg>
