<svg width="66" height="66" viewBox="0 0 66 66" fill="none" xmlns="http://www.w3.org/2000/svg">
<path d="M57.3877 49.2829C55.7381 49.2839 54.129 49.7936 52.78 50.7425L47.8477 45.6827C50.8297 42.167 52.4664 37.7074 52.4664 33.0983C52.4664 28.4891 50.8297 24.0296 47.8477 20.5138L52.8773 15.519C54.3793 16.5232 56.1737 16.9974 57.976 16.8664C59.7783 16.7354 61.4852 16.0067 62.826 14.7959C64.1668 13.585 65.0648 11.9613 65.3775 10.1824C65.6902 8.40345 65.3997 6.57108 64.5521 4.9759C63.7046 3.38072 62.3484 2.11407 60.6987 1.37686C59.0491 0.639642 57.2004 0.474065 55.4459 0.906391C53.6914 1.33872 52.1316 2.34419 51.0138 3.76334C49.8959 5.18249 49.2842 6.93405 49.2755 8.74023C49.2849 10.343 49.7582 11.9088 50.6383 13.2486L45.6087 18.211C42.0961 15.2475 37.6476 13.6219 33.051 13.6219C28.4543 13.6219 24.0059 15.2475 20.4932 18.211L15.4312 13.281C16.5738 11.6076 17.0539 9.5696 16.7784 7.56237C16.5029 5.55513 15.4913 3.72173 13.94 2.41777C12.3886 1.11382 10.408 0.432269 8.38233 0.505319C6.35668 0.578368 4.43037 1.40081 2.97705 2.81312C1.52372 4.22543 0.646976 6.12693 0.516873 8.14879C0.386769 10.1707 1.01258 12.1688 2.27292 13.7555C3.53326 15.3423 5.33829 16.4046 7.33789 16.7364C9.33749 17.0683 11.3891 16.646 13.0948 15.5514L18.1893 20.5138C15.2074 24.0296 13.5706 28.4891 13.5706 33.0983C13.5706 37.7074 15.2074 42.167 18.1893 45.6827L13.3544 50.7749C12.0031 49.8022 10.3794 49.2801 8.71421 49.2829C7.10976 49.2829 5.54134 49.7585 4.20728 50.6495C2.87323 51.5404 1.83346 52.8068 1.21946 54.2885C0.605466 55.7701 0.444816 57.4005 0.75783 58.9734C1.07084 60.5463 1.84346 61.9911 2.97798 63.1251C4.1125 64.2591 5.55796 65.0313 7.13159 65.3442C8.70521 65.6571 10.3363 65.4965 11.8186 64.8828C13.301 64.2691 14.5679 63.2298 15.4593 61.8963C16.3507 60.5629 16.8265 58.9952 16.8265 57.3915C16.8261 55.8871 16.3985 54.4137 15.5934 53.1426L20.5581 47.9531C21.2149 48.5078 21.9088 49.0171 22.6348 49.4775C25.7282 51.4459 29.3191 52.4915 32.9861 52.4915C36.6531 52.4915 40.244 51.4459 43.3373 49.4775C44.0634 49.0171 44.7572 48.5078 45.4141 47.9531L50.4112 53.1102C49.636 54.4015 49.2422 55.8858 49.2755 57.3915C49.2755 58.9952 49.7513 60.5629 50.6426 61.8963C51.534 63.2298 52.801 64.2691 54.2833 64.8828C55.7656 65.4965 57.3967 65.6571 58.9704 65.3442C60.544 65.0313 61.9894 64.2591 63.124 63.1251C64.2585 61.9911 65.0311 60.5463 65.3441 58.9734C65.6571 57.4005 65.4965 55.7701 64.8825 54.2885C64.2685 52.8068 63.2287 51.5404 61.8947 50.6495C60.5606 49.7585 58.9922 49.2829 57.3877 49.2829ZM57.3877 3.8751C58.1895 3.85351 58.9842 4.03031 59.7012 4.38978C60.4181 4.74925 61.0351 5.28024 61.4972 5.93554C61.9593 6.59083 62.2522 7.35012 62.3499 8.14588C62.4476 8.94163 62.3471 9.74918 62.0572 10.4967C61.7673 11.2443 61.2971 11.9086 60.6884 12.4307C60.0797 12.9527 59.3513 13.3164 58.5681 13.4892C57.7849 13.662 56.971 13.6387 56.199 13.4213C55.427 13.2039 54.7206 12.7992 54.1428 12.2431C53.2705 11.3835 52.7597 10.2233 52.7151 8.9997C52.6802 8.35538 52.7738 7.71055 52.9906 7.10276C53.2074 6.49497 53.543 5.93636 53.9779 5.45945C54.4127 4.98254 54.9382 4.59685 55.5236 4.32485C56.109 4.05285 56.7427 3.89997 57.3877 3.8751ZM3.84686 8.74023C3.84686 7.44992 4.35967 6.21245 5.27247 5.30006C6.18528 4.38768 7.42331 3.8751 8.71421 3.8751C10.0051 3.8751 11.2431 4.38768 12.1559 5.30006C13.0688 6.21245 13.5816 7.44992 13.5816 8.74023C13.5847 9.3872 13.457 10.0281 13.2061 10.6245C12.9551 11.2209 12.5862 11.7604 12.1214 12.2107C11.2102 13.1006 9.98813 13.6009 8.71421 13.6053C7.42331 13.6053 6.18528 13.0928 5.27247 12.1804C4.35967 11.268 3.84686 10.0305 3.84686 8.74023ZM33.051 16.8488C36.2757 16.8618 39.4235 17.835 42.0924 19.6443C44.7613 21.4535 46.8302 24.0167 48.035 27.0066C49.2399 29.9965 49.526 33.2775 48.8569 36.4306C48.1878 39.5838 46.5938 42.4662 44.2783 44.7097C43.9969 42.176 42.851 39.8166 41.0334 38.0283C40.2006 37.2091 39.2488 36.5202 38.2104 35.9849C39.1259 35.2403 39.8634 34.3004 40.3687 33.2342C40.874 32.1679 41.1343 31.0022 41.1308 29.8224C41.1367 28.4563 40.7973 27.1108 40.1439 25.9109C39.4906 24.7109 38.5445 23.6954 37.3935 22.9587C36.2425 22.2219 34.924 21.7878 33.5603 21.6966C32.1966 21.6054 30.8319 21.86 29.593 22.4369C28.354 23.0138 27.281 23.8942 26.4735 24.9965C25.666 26.0987 25.1502 27.387 24.974 28.7417C24.7978 30.0964 24.9669 31.4737 25.4657 32.7457C25.9644 34.0176 26.7765 35.143 27.8267 36.0174C26.1868 36.8678 24.7814 38.1085 23.7345 39.63C22.6876 41.1516 22.0313 42.9072 21.8236 44.7421C19.4968 42.5005 17.8928 39.6154 17.2171 36.4567C16.5414 33.298 16.8248 30.0095 18.031 27.0128C19.2372 24.0161 21.3112 21.4477 23.9873 19.6368C26.6633 17.826 29.8194 16.8551 33.051 16.8488ZM28.1836 29.8224C28.1836 28.8602 28.4691 27.9196 29.0039 27.1195C29.5387 26.3194 30.2989 25.6959 31.1883 25.3276C32.0777 24.9594 33.0564 24.8631 34.0005 25.0508C34.9447 25.2385 35.812 25.7019 36.4927 26.3823C37.1734 27.0627 37.637 27.9295 37.8248 28.8733C38.0126 29.817 37.9162 30.7952 37.5478 31.6842C37.1794 32.5732 36.5556 33.333 35.7551 33.8676C34.9547 34.4022 34.0136 34.6876 33.051 34.6876C31.7601 34.6876 30.522 34.175 29.6092 33.2626C28.6964 32.3502 28.1836 31.1127 28.1836 29.8224ZM8.71421 62.2566C7.42331 62.2566 6.18528 61.744 5.27247 60.8316C4.35967 59.9192 3.84686 58.6818 3.84686 57.3915C3.84686 56.1012 4.35967 54.8637 5.27247 53.9513C6.18528 53.0389 7.42331 52.5263 8.71421 52.5263C9.37224 52.5232 10.0237 52.6572 10.6271 52.9196C11.2305 53.1821 11.7725 53.5673 12.2187 54.0507C13.0341 54.9317 13.476 56.0943 13.4518 57.2942C13.4779 58.5791 12.9944 59.8221 12.1068 60.7519C11.2191 61.6816 9.99951 62.2226 8.71421 62.2566ZM24.9387 47.0125V46.0395C24.9387 43.889 25.7934 41.8265 27.3147 40.3059C28.8361 38.7853 30.8995 37.931 33.051 37.931C35.2025 37.931 37.2659 38.7853 38.7872 40.3059C40.3085 41.8265 41.1632 43.889 41.1632 46.0395V47.0125C38.7187 48.4991 35.9124 49.2853 33.051 49.2853C30.1896 49.2853 27.3833 48.4991 24.9387 47.0125ZM57.3877 62.2566C56.4477 62.2664 55.5251 62.002 54.7331 61.4958C53.941 60.9896 53.3137 60.2636 52.9281 59.4066C52.5424 58.5496 52.4151 57.5988 52.5617 56.6706C52.7083 55.7424 53.1224 54.8771 53.7534 54.1805V54.0183C54.2198 53.5276 54.7846 53.141 55.411 52.8839C56.0373 52.6267 56.711 52.5049 57.3877 52.5263C58.6786 52.5263 59.9167 53.0389 60.8295 53.9513C61.7423 54.8637 62.2551 56.1012 62.2551 57.3915C62.2551 58.6818 61.7423 59.9192 60.8295 60.8316C59.9167 61.744 58.6786 62.2566 57.3877 62.2566Z" fill="#7A4FF6"/>
</svg>
