<svg width="285" height="153" viewBox="0 0 285 153" fill="none" xmlns="http://www.w3.org/2000/svg">
<path d="M85.8347 140.001C84.594 139.392 83.3447 138.782 83.3447 138.782C85.0784 139.585 86.7863 140.386 88.3381 141.177C88.3381 141.177 87.0859 140.593 85.8347 140.001C87.0859 140.593 84.594 139.392 85.8347 140.001Z" fill="white"/>
<path d="M64.2329 131.26C64.0194 131.219 63.6423 131.081 62.9846 130.799C63.3905 130.914 63.8155 131.092 64.2329 131.26Z" fill="white"/>
<path d="M107.606 48.2103L108.008 48.5952C107.618 48.4123 107.527 48.2888 107.606 48.2103Z" fill="white"/>
<path d="M96.0818 143.311L95.8195 143.238C94.6755 142.858 95.1226 142.995 96.0818 143.311Z" fill="white"/>
<path d="M86.2402 152.796C85.3499 152.41 84.4414 152.108 83.5099 151.856C84.4911 151.974 85.4685 152.048 86.4373 152.278C88.8143 152.629 88.0618 149.274 87.5984 147.714C87.3993 147.544 87.5631 148.504 87.5736 148.566C87.6847 149.372 87.88 150.283 87.6761 151.098C87.5334 151.597 87.162 151.8 86.7427 151.727C86.1004 151.542 85.547 151.341 85.0827 151.202L86.2689 151.517C86.1702 151.463 86.0802 151.409 85.9902 151.356C80.9806 149.892 75.9873 148.046 71.0313 145.943C70.9471 145.916 70.8628 145.89 70.7948 145.873L72.3553 146.666C68.4485 144.854 64.5292 143.075 60.6502 141.17L60.7565 141.313C60.4616 141.141 60.1916 140.98 59.9312 140.811C58.0702 139.898 56.213 138.95 54.374 137.996C54.8144 138.429 54.5367 138.415 52.2928 137.18C52.5934 137.615 53.1563 137.887 53.5641 138.142C54.42 138.681 55.2988 139.172 56.1881 139.645C58.6169 140.944 61.0829 142.143 63.5882 143.224C62.0833 142.559 60.3754 141.602 58.7365 141.437C58.3143 141.391 58.8055 141.759 58.927 141.842C59.8748 142.497 60.9202 142.98 61.9187 143.492C60.095 143.263 56.4304 140.527 53.2425 139.152C53.8648 139.283 52.94 138.578 53.2329 138.532C52.7638 139.221 41.8495 132.497 41.9012 131.874L47.4239 135.392C47.8308 135.185 45.3676 133.489 43.967 132.435C36.1984 128.171 28.4652 123.823 21.0651 118.753C17.6284 116.4 14.2011 113.961 10.9721 111.229C7.97374 108.698 5.16111 105.752 3.15643 102.049C3.01476 102.225 3.13827 102.605 3.08754 102.826C2.98607 103.269 2.23169 102.129 2.18574 102.072C1.32987 100.512 -1.60632 94.2804 1.84381 94.3148C1.85243 94.3157 1.86107 94.3167 1.86968 94.3176C4.35097 92.0813 8.00787 92.1386 10.9219 91.7384C15.0134 91.1811 19.1202 89.7795 23.161 88.7369C31.9365 86.4496 40.5771 83.5717 49.0157 79.7642C48.985 79.6474 48.6528 79.6541 47.9186 79.8255C52.2714 77.7011 50.4076 78.8547 49.9242 79.3592C51.1007 78.8183 52.2782 78.2688 53.4413 77.6915C54.5297 77.1582 55.4478 77.4521 56.3946 78.194C56.5238 78.2084 56.653 78.2227 56.5908 78.0762C56.5564 77.9939 56.4424 77.8417 56.1878 77.6215C55.9226 77.4176 55.4899 77.073 54.7738 76.9237C56.2347 77.0423 58.4968 78.7415 58.6251 80.6485C60.1281 82.7431 61.4876 85.2666 62.1674 87.9413C62.332 88.5789 62.5809 89.5572 62.2564 90.2015C62.0324 90.6477 61.3987 90.7779 61.0205 90.9626C60.2738 91.3245 59.5281 91.6778 58.7824 92.0311C58.1611 92.4418 57.5236 92.8419 56.9291 93.3254C53.2109 94.9185 51.1757 95.5733 49.9705 95.8232C47.8271 96.6667 45.6713 97.4652 43.5135 98.2023C44.5694 97.962 45.2472 97.9065 45.1515 98.2971C40.7613 99.1875 36.4257 100.45 32.0699 101.58C43.5213 104.492 55.1919 106.373 66.9045 107.561C72.8551 108.169 78.8335 108.528 84.8291 108.496C90.5366 108.467 96.4958 108.214 102.051 106.179C101.939 106.01 101.846 105.825 101.725 105.663C97.2279 98.6395 91.1288 93.1647 85.3073 87.7818C79.168 82.1194 72.6639 76.9921 66.8587 70.8348C66.874 70.8539 66.8903 70.8645 66.897 70.8827C64.229 68.4406 63.5626 67.3722 63.127 66.5825C62.0213 65.2298 60.9549 63.8379 60.0846 62.2497C60.6418 63.8293 61.1416 65.1408 61.9745 66.5155C60.4485 64.3922 59.2958 62.0487 58.7559 59.2935C58.1757 57.6852 57.787 56.0023 57.6433 54.3117C57.5141 53.9833 57.4146 54.3299 57.2978 54.125C57.2614 52.7254 57.4154 51.3382 57.8003 49.9941C58.6062 45.2515 61.7738 41.3906 65.647 39.9717C66.1659 39.6194 66.9509 39.5409 67.5128 39.4289C68.5563 39.2221 69.6074 39.1033 70.6614 39.0373C72.7751 38.9319 74.8783 39.0783 76.9787 39.2506C81.5929 39.6411 86.2157 40.0325 90.8252 40.5445C91.8744 40.5215 92.5607 40.4669 92.8077 40.3635C92.9906 40.5234 93.3544 40.7034 93.8483 40.8891C100.739 41.672 107.615 42.2702 114.544 42.6299C116.969 41.9224 108.516 41.8556 104.7 41.0305C107.414 41.2535 110.152 41.4181 112.856 41.8143C115.267 42.1695 117.652 42.6873 120.065 43.0252C122.043 43.1228 124.711 43.4453 127.319 43.7612C130.843 43.9085 134.376 43.9869 137.917 43.9878C137.667 43.96 137.426 43.9332 137.177 43.8969C139.066 43.9322 140.931 43.869 142.796 43.4832C144.63 43.0763 146.511 43.1806 148.346 43.2274C147.286 43.4237 145.921 43.6994 144.381 43.9034C148.583 43.7597 152.783 43.5633 156.993 43.2722C158.241 43.1142 158.794 42.9227 157.861 42.6796C161.605 42.4325 164.363 42.4162 165.416 42.5942C167.574 42.3979 169.736 42.1757 171.899 41.9364C169.166 41.7287 163.252 42.2056 169.634 41.1265L175.635 41.1302C176.641 40.7099 186.12 39.3905 185.6 38.7309C188.942 38.3259 189.511 38.546 192.234 38.2904C194.736 37.5216 196.598 36.9347 199.889 36.8293C192.518 38.4091 185.167 40.0434 177.744 41.1464C177.835 41.1914 178.08 41.1837 178.397 41.1579C188.696 39.8337 199.002 38.1437 209.223 35.956C210.156 35.484 206.794 35.8345 206.256 35.6526C213.577 33.8143 214.096 34.7966 220.466 32.809C210.471 34.7689 223.991 31.5433 227.106 30.0402C223.722 32.3944 219.571 33.4073 215.836 34.449C226.476 31.863 237.036 28.5092 247.206 23.7951C252.273 21.4448 257.238 18.7603 262.053 15.6929C264.438 14.1698 266.703 12.3106 269.101 10.8238C270.918 9.69988 271.496 12.4244 271.502 14.0212C271.488 16.8894 270.329 20.3367 268.427 22.2275C267.161 23.4912 265.558 24.4208 264.124 25.3954C262.472 26.5289 260.798 27.6164 259.113 28.6504C259.016 28.7442 258.983 28.8016 259.026 28.8064C258.881 28.86 258.708 28.928 258.534 28.996C255.495 30.8389 252.41 32.5459 249.279 34.1083C250.147 33.9168 251.403 33.4372 253.313 32.4195C248.507 35.6448 243.29 38.0833 238.071 40.0765C233.099 41.9664 227.918 43.6936 222.739 44.3045C222.577 44.3475 222.415 44.3992 222.243 44.45C221.988 44.5524 220.528 44.8961 220.421 45.303C220.392 45.4131 221.811 45.2044 221.891 45.1871C222.932 44.9976 223.961 44.7716 224.991 44.5284C227.104 44.0306 229.2 43.4609 231.319 42.9898C220.711 46.783 209.911 49.4647 199.03 51.6314C188.398 53.7474 177.714 55.3866 167.001 56.5079C165.677 56.6486 164.355 56.7722 163.032 56.9043C162.577 55.903 160.374 56.4956 156.778 56.0438L154.582 56.5762C155.326 56.3971 153.943 56.1301 154.494 55.7988C142.723 56.5496 130.954 56.6553 119.202 56.0563C121.134 56.6459 123.093 57.0642 125.09 57.3035C114.274 56.2153 103.408 56.0375 92.6434 54.4056C93.505 54.8153 94.5216 54.9282 95.4349 55.1082C97.1504 55.447 98.8812 55.7265 100.596 55.9955C103.785 56.498 106.982 57.0014 110.196 57.2799C107.424 57.1029 104.658 56.7258 101.902 56.4109C100.721 56.2798 99.5418 56.14 98.3653 56.053C98.0101 56.0309 96.9044 55.7773 96.5942 56.1353L95.7202 55.2881C87.4184 54.331 96.7474 56.0913 93.9875 56.2819C90.8772 55.9363 87.5448 55.7842 84.5475 54.736C84.1952 54.6097 83.7577 54.4651 83.4992 54.1224C83.4389 54.0372 83.3977 53.9367 83.3585 53.8189C83.0885 52.8731 82.1915 52.7037 81.44 52.4807C78.929 52.1581 76.1088 51.714 73.2445 51.5092C70.745 51.4757 68.2962 51.2997 65.7986 51.7985C65.9479 52.0244 66.1068 52.2427 66.2562 52.4686C66.0858 51.8042 67.674 53.0535 67.8348 53.176C68.1345 55.1108 69.9247 56.8186 71.1089 58.0142C72.0576 58.9744 73.0676 59.8542 74.0594 60.7406C76.625 63.0056 79.1925 65.2533 81.7275 67.5585C82.1679 67.3632 77.5919 63.174 77.3927 62.2186C79.8981 64.8694 82.5872 67.2789 85.1949 69.7928C86.5112 71.0554 87.8161 72.343 89.0702 73.6947C89.7863 74.472 90.7723 75.3317 91.2041 76.3914C94.6973 79.6491 98.272 82.8025 101.6 86.2947C104.802 89.6596 107.812 93.5003 109.611 98.1921C109.202 97.0825 108.746 96.0027 108.263 94.9372C108.073 94.5237 107.45 93.5386 107.66 93.0647C108.057 92.0011 106.82 90.4158 106.373 89.6509C108.574 93.3145 111.127 97.811 110.93 102.569C110.711 107.682 107.891 112.733 104.616 115.989C103.788 116.769 102.877 117.348 101.936 117.811C97.7022 120.28 92.7482 120.593 88.1732 120.87C88.177 121.071 88.4336 121.274 89.0788 121.59C86.0672 121.927 82.8392 122.405 79.8839 121.606C77.3691 120.925 74.5651 121.12 71.9929 121.035C74.0032 121.075 76.0231 121.107 78.0287 121.112C77.865 121.094 77.7089 121.085 77.5452 121.067C71.2892 120.93 65.0543 120.369 58.8433 119.591C59.185 119.891 59.9547 120.186 58.0143 119.909C54.8676 118.714 51.3619 118.551 48.0678 118.211C44.7986 117.883 41.5112 117.64 38.2774 117.071C40.104 117.981 42.0608 118.974 44.0874 120.046C45.2515 121.03 46.6789 121.685 47.9684 122.404C50.3023 123.693 52.6592 124.932 55.0257 126.163C57.3673 127.382 59.7319 128.552 62.0869 129.729C63.541 130.458 65.0545 131.123 66.4551 132.02C63.8464 130.692 61.6015 129.623 58.2643 128.18L58.5123 129.167C64.4428 131.997 59.1221 128.702 64.6496 131.785C63.2749 132.382 56.4349 127.924 52.3088 125.887C53.7161 126.881 55.7045 128.139 58.2308 129.502C56.8159 128.812 55.401 128.123 53.9794 127.416C55.7542 128.319 57.5224 129.205 59.3097 130.075C58.9469 129.886 58.5841 129.698 58.2308 129.502C61.4589 131.064 64.6774 132.634 67.9677 134.029C67.7034 133.738 67.8796 133.644 69.0121 133.97C72.6393 135.237 76.2666 136.503 79.7436 138.259C81.664 138.873 83.2454 140.654 84.5034 142.599C85.2051 143.27 85.8417 143.742 86.4075 144.616C87.248 146.079 87.9125 147.871 88.2064 149.622C88.2705 150.144 88.3289 150.639 88.2437 151.17C88.4266 150.152 88.2379 149.102 88.0312 148.137C87.7535 146.868 87.4452 145.403 86.7579 144.367L86.4678 143.445C86.665 143.711 86.8316 143.939 86.9953 144.193C87.8885 145.731 88.6917 147.53 88.8449 149.449C88.9818 151.199 88.3701 153.251 86.5714 152.955C86.4527 152.925 86.2756 152.87 86.2009 152.836C86.1262 152.801 86.2756 152.87 86.2009 152.836L86.2402 152.796ZM32.9672 116.351C32.9672 116.351 32.9242 116.346 32.8897 116.342C33.7523 116.822 34.6215 117.319 35.4936 117.791C35.552 117.815 35.6027 117.83 35.6525 117.853C34.4453 117.099 33.6134 116.658 32.9663 116.359C32.9404 116.356 33.622 116.659 32.9663 116.359L32.9672 116.351ZM213.518 34.584C209.948 35.3912 211.31 35.3069 209.58 35.8823C211.153 35.5424 212.727 35.1853 214.304 34.8109L213.519 34.5754L213.518 34.584ZM105.602 91.8767C103.722 89.2518 101.537 86.9332 99.2944 84.7477C101.688 87.1505 103.993 89.718 105.953 92.6483C106.271 93.0063 106.637 93.4745 107.1 94.1015C107.1 94.1015 106.549 93.1681 105.611 91.8777C104.682 90.5796 106.548 93.1767 105.611 91.8777L105.602 91.8767ZM36.6864 117.653C34.8809 116.868 34.9527 117.243 35.8038 117.904C35.9368 117.963 36.0019 118.005 35.9646 118.027C35.9895 118.038 36.0048 118.057 36.0288 118.077C38.6872 119.507 41.3782 120.878 44.0511 122.257C41.5266 120.878 39.0069 119.455 36.6864 117.653C38.7427 119.242 34.8809 116.868 36.6864 117.653Z" fill="white"/>
<path d="M94.5099 143.956C93.8723 143.885 93.0088 143.728 91.3938 143.27C92.6671 143.507 93.6713 143.732 94.5099 143.956Z" fill="white"/>
<path d="M270.026 20.9063C270.271 20.8201 270.489 20.7483 270.659 20.7062C270.293 20.8575 270.094 20.9226 270.026 20.9063Z" fill="white"/>
<path d="M279.251 1.4686C278.542 1.95685 277.826 2.43554 277.119 2.91517C277.722 2.35417 278.326 1.78454 278.938 1.21587C278.997 1.16131 279.053 1.12397 279.093 1.08472C279.188 1.00813 279.236 0.969848 279.236 0.969848C280.681 0.292985 282.212 0.323577 283.2 1.8725C283.661 2.59527 283.893 3.49322 283.993 4.39406C284.054 4.86314 284.271 6.68398 283.878 7.07649C283.833 7.01044 283.816 6.93002 283.844 6.83716C284.149 3.61767 282.566 -0.736193 279.268 1.47052C278.863 1.73953 279.551 1.27522 279.268 1.47052L279.251 1.4686Z" fill="white"/>
<path d="M256.773 14.82C255.547 15.1024 254.313 15.3753 254.313 15.3753C258.226 13.6731 262.221 12.4945 266.019 10.4218C263.786 11.7612 261.526 13.0191 259.248 14.2139C259.248 14.2139 258.02 14.5136 256.782 14.8209C255.556 15.1034 258.02 14.5136 256.782 14.8209L256.773 14.82Z" fill="white"/>
<path d="M246.529 19.805L248.21 19.4335C246.685 19.8921 246.349 19.9333 246.529 19.805Z" fill="white"/>
<path d="M247.902 18.3613C250.251 17.628 252.585 16.7969 252.585 16.7969C251.419 17.3216 250.254 17.8376 249.081 18.3441C249.095 18.6159 246.835 19.5686 246.529 19.805C245.324 20.0549 244.111 20.2952 242.89 20.5346C243.769 20.3096 245.543 19.8089 246.144 19.5006L243.184 19.7735C243.184 19.7735 245.55 19.1206 247.901 18.37C245.55 19.1206 250.25 17.6366 247.901 18.37L247.902 18.3613Z" fill="white"/>
<path d="M238.116 22.1325C238.314 21.9975 238.584 21.8443 238.721 21.7112C238.809 21.7821 238.566 21.9295 238.116 22.1325Z" fill="white"/>
<path d="M133.6 34.9182L138.215 35.0646L139.65 35.4944C137.638 35.3144 135.618 35.125 133.6 34.9182Z" fill="white"/>
<path d="M103.655 32.1935C103.948 32.3045 103.972 32.3945 103.798 32.4711C103.687 32.3715 103.628 32.2777 103.655 32.1935Z" fill="white"/>
<path d="M72.9659 58.6144C73.478 59.3429 73.9146 59.9671 74.6172 60.865C73.8964 60.0523 73.3938 59.3161 72.9659 58.6144Z" fill="white"/>
<path d="M105.58 32.1369L102.887 31.6459L104.812 31.5894L105.58 32.1369Z" fill="white"/>
<path d="M76.4841 63.2181C76.9781 63.9533 77.4902 64.6818 77.9947 65.4008L76.7072 63.8796C75.5584 62.6792 75.3381 61.9918 76.4841 63.2181Z" fill="white"/>
<path d="M83.9339 69.8024C84.7515 70.3729 85.57 70.9348 85.57 70.9348L87.2137 72.9404C85.5662 71.5188 83.9282 70.0896 82.3007 68.644C82.3007 68.644 83.1173 69.2232 83.9339 69.8024C84.7515 70.3729 83.1173 69.2232 83.9339 69.8024Z" fill="white"/>
<path d="M43.1126 119.284C37.9546 116.723 33.752 113.334 29.0381 109.993C33.4131 112.773 39.1933 116.642 43.1126 119.284Z" fill="white"/>
<path d="M75.5551 137.219C77.0571 137.831 78.5869 138.428 79.9999 139.292C80.2938 139.473 80.5954 139.663 80.8453 139.926C81.3593 140.481 80.7572 140.719 80.3896 141.044C79.147 140.296 77.3808 139.393 80.2345 140.556C78.6731 139.458 77.1127 138.352 75.5541 137.228L75.5551 137.219Z" fill="white"/>
<path d="M77.567 121.62C79.8531 122.79 82.1631 123.902 84.5076 124.938C83.2774 124.47 82.0558 124.003 80.8276 123.518C82.5039 124.681 83.7312 125.41 86.358 126.731C81.0603 124.643 76.2622 121.903 77.5756 121.621L77.567 121.62Z" fill="white"/>
<path d="M90.1634 128.122C91.3265 128.251 92.2762 128.575 93.178 129.486C92.2322 128.814 91.2136 128.483 90.1634 128.122C90.6344 128.279 90.3702 128.145 90.1634 128.122Z" fill="white"/>
<path d="M86.3495 126.73C87.6275 127.239 88.9266 127.714 90.1644 128.114C88.8136 127.946 87.5825 127.33 86.3495 126.73C87.6275 127.239 86.6644 126.879 86.3495 126.73Z" fill="white"/>
<path d="M60.1267 113.499L64.7879 115.665C65.5394 116.83 70.5069 118.124 72.1276 119.708C68.1011 117.717 64.1149 115.599 60.1267 113.499Z" fill="white"/>
<path d="M100.249 114.982C100.368 114.934 100.593 114.872 100.976 114.801C100.75 114.872 100.5 114.922 100.249 114.982Z" fill="white"/>
<path d="M100.249 114.982C99.1972 115.423 107.122 115.143 97.9154 115.97C94.246 115.632 90.5528 115.667 86.8729 115.502C82.9594 115.32 79.0507 115.017 75.1497 114.723L76.5971 114.177C80.6446 114.487 84.6596 115.012 88.7004 115.304C92.499 115.577 96.4641 115.843 100.249 114.982C99.1972 115.423 97.6991 115.562 100.249 114.982Z" fill="white"/>
<path d="M113.387 111.19C112.085 111.447 110.982 112.118 109.779 112.735C109.234 113.014 108.678 113.223 108.097 113.35C107.838 113.409 106.507 113.767 106.349 113.461C106.348 113.47 108.385 112.641 108.569 112.557C109.614 112.263 110.655 111.916 111.683 111.533C112.038 111.398 113.424 110.549 113.747 110.777C113.828 110.838 113.378 111.198 113.387 111.19C114.138 110.559 112.005 111.464 113.387 111.19Z" fill="white"/>
<path d="M114.226 79.3777C112.979 77.9657 111.691 76.6015 110.534 75.0861C109.604 73.8751 108.931 72.4746 107.945 71.3009C109.773 72.8297 111.546 74.5356 113.065 76.4837C113.4 76.9222 114.168 77.7053 114.21 78.3467C114.222 78.6272 112.731 77.3712 112.652 77.2927C114.503 79.2427 116.862 82.2697 114.219 79.3681C111.53 76.322 116.853 82.2687 114.219 79.3681L114.226 79.3777Z" fill="white"/>
<path d="M85.5197 44.2217C86.9901 44.6467 88.4595 45.0804 89.9271 45.5312L87.8574 45.3973C87.082 44.9971 86.297 44.6046 85.5197 44.2217Z" fill="white"/>
<path d="M139.779 50.8249C136.964 50.7216 134.16 50.602 131.351 50.4556L134.138 50.0937L139.779 50.8249Z" fill="white"/>
<path d="M146.419 50.1757C148.277 50.1728 150.136 50.1612 150.136 50.1612L147.517 50.4198C143.92 50.6046 145.171 50.1767 142.69 50.1365C142.69 50.1365 144.555 50.1518 146.419 50.1757C148.277 50.1728 144.555 50.1518 146.419 50.1757Z" fill="white"/>
<path d="M159.61 49.9054C157.922 49.8748 156.233 49.8442 156.233 49.8442C159.177 49.8049 162.114 49.7474 165.062 49.665C164.103 49.6631 163.538 49.801 162.993 49.9235C162.993 49.9235 161.301 49.9188 159.61 49.9054C161.302 49.9101 157.922 49.8748 159.61 49.9054Z" fill="white"/>
</svg>
