<svg width="139" height="80" viewBox="0 0 139 80" fill="none" xmlns="http://www.w3.org/2000/svg">
<path d="M41.9246 73.1863C41.3172 72.8668 40.7055 72.5467 40.7055 72.5467C41.5543 72.9682 42.3905 73.3882 43.1503 73.8037C43.1503 73.8037 42.5372 73.4973 41.9246 73.1863C42.5372 73.4973 41.3172 72.8668 41.9246 73.1863Z" fill="white"/>
<path d="M31.3483 68.599C31.2438 68.5774 31.0591 68.5051 30.7371 68.3569C30.9358 68.4171 31.1439 68.5106 31.3483 68.599Z" fill="white"/>
<path d="M52.5838 25.0134L52.7807 25.2154C52.5899 25.1194 52.5454 25.0546 52.5838 25.0134Z" fill="white"/>
<path d="M46.9416 74.9235L46.8132 74.8853C46.2531 74.6859 46.472 74.7577 46.9416 74.9235Z" fill="white"/>
<path d="M42.1231 79.9016C41.6872 79.6986 41.2424 79.5404 40.7864 79.4082C41.2668 79.47 41.7453 79.5087 42.2197 79.6292C43.3835 79.8136 43.015 78.0531 42.7882 77.2342C42.6907 77.1448 42.7708 77.6487 42.776 77.6814C42.8304 78.1044 42.926 78.5827 42.8262 79.0103C42.7563 79.272 42.5745 79.3785 42.3692 79.3404C42.0547 79.2434 41.7838 79.1379 41.5564 79.065L42.1372 79.2303C42.0889 79.2017 42.0448 79.1736 42.0008 79.1454C39.5481 78.3773 37.1033 77.4087 34.6768 76.305C34.6356 76.2909 34.5943 76.2768 34.561 76.2683L35.325 76.6843C33.4122 75.7333 31.4934 74.7998 29.5942 73.8001L29.6462 73.8749C29.5018 73.7845 29.3697 73.7001 29.2422 73.6117C28.331 73.1324 27.4217 72.635 26.5213 72.1341C26.737 72.3612 26.601 72.3542 25.5024 71.7061C25.6495 71.9342 25.9251 72.0769 26.1248 72.2105C26.5438 72.4939 26.9741 72.7511 27.4095 72.9998C28.5987 73.6815 29.806 74.3105 31.0326 74.8777C30.2958 74.5291 29.4596 74.0266 28.6572 73.9403C28.4505 73.9156 28.691 74.1091 28.7505 74.1528C29.2145 74.4964 29.7264 74.7496 30.2152 75.0184C29.3223 74.8983 27.5281 73.4625 25.9673 72.7411C26.272 72.8094 25.8192 72.4396 25.9626 72.4155C25.733 72.7772 20.3893 69.2479 20.4146 68.9213L23.1185 70.7677C23.3177 70.6586 22.1118 69.7689 21.426 69.2157C17.6225 66.9776 13.8363 64.6957 10.2132 62.035C8.53051 60.8001 6.85252 59.52 5.27157 58.0867C3.80357 56.7583 2.42649 55.2119 1.445 53.2686C1.37563 53.3611 1.4361 53.5605 1.41127 53.6766C1.36159 53.9087 0.992238 53.3108 0.969739 53.2807C0.550705 52.4618 -0.886867 49.1916 0.80233 49.2096C0.806549 49.2101 0.810779 49.2106 0.814998 49.2111C2.02985 48.0374 3.82028 48.0675 5.247 47.8575C7.25022 47.565 9.26092 46.8294 11.2393 46.2823C15.5358 45.0819 19.7663 43.5715 23.8979 41.5733C23.8829 41.512 23.7202 41.5155 23.3607 41.6054C25.4919 40.4905 24.5794 41.096 24.3427 41.3607C24.9187 41.0769 25.4952 40.7885 26.0647 40.4855C26.5976 40.2056 27.047 40.3599 27.5106 40.7492C27.5739 40.7568 27.6372 40.7643 27.6067 40.6874C27.5898 40.6442 27.534 40.5643 27.4094 40.4488C27.2795 40.3418 27.0677 40.1609 26.7171 40.0825C27.4323 40.1448 28.5399 41.0366 28.6027 42.0374C29.3386 43.1367 30.0042 44.461 30.337 45.8647C30.4176 46.1993 30.5395 46.7128 30.3806 47.0509C30.2709 47.2851 29.9606 47.3534 29.7755 47.4504C29.4099 47.6403 29.0448 47.8257 28.6797 48.0111C28.3755 48.2266 28.0634 48.4367 27.7723 48.6904C25.9519 49.5265 24.9554 49.8701 24.3653 50.0013C23.3159 50.4439 22.2604 50.863 21.204 51.2499C21.721 51.1238 22.0528 51.0946 22.0059 51.2996C19.8565 51.7669 17.7337 52.4296 15.6012 53.0225C21.2078 54.5507 26.9218 55.5378 32.6563 56.1612C35.5698 56.4806 38.4968 56.669 41.4323 56.6523C44.2267 56.6372 47.1443 56.5039 49.8642 55.4362C49.8093 55.3473 49.7639 55.2503 49.7043 55.1654C47.5028 51.4793 44.5166 48.606 41.6664 45.781C38.6606 42.8093 35.4762 40.1185 32.6339 36.887C32.6414 36.8971 32.6494 36.9026 32.6527 36.9121C31.3464 35.6305 31.0201 35.0698 30.8069 34.6553C30.2655 33.9454 29.7433 33.2149 29.3173 32.3814C29.5901 33.2104 29.8348 33.8987 30.2426 34.6202C29.4954 33.5059 28.9311 32.276 28.6667 30.83C28.3827 29.986 28.1923 29.1027 28.122 28.2155C28.0587 28.0431 28.01 28.225 27.9528 28.1175C27.935 27.383 28.0104 26.655 28.1988 25.9496C28.5934 23.4606 30.1443 21.4343 32.0407 20.6897C32.2947 20.5048 32.679 20.4636 32.9542 20.4048C33.465 20.2962 33.9797 20.2339 34.4957 20.1992C35.5306 20.1439 36.5603 20.2208 37.5887 20.3112C39.8478 20.5161 42.1112 20.7215 44.368 20.9903C44.8817 20.9782 45.2177 20.9496 45.3386 20.8953C45.4282 20.9792 45.6063 21.0736 45.8481 21.1711C49.2219 21.582 52.5885 21.8959 55.981 22.0847C57.1682 21.7134 53.0296 21.6784 51.1613 21.2453C52.4901 21.3624 53.8306 21.4487 55.1542 21.6567C56.3349 21.8431 57.5024 22.1148 58.684 22.2922C59.6523 22.3434 60.9586 22.5127 62.2353 22.6784C63.9611 22.7557 65.6906 22.7969 67.4243 22.7974C67.302 22.7828 67.1839 22.7687 67.062 22.7496C67.9868 22.7682 68.8998 22.735 69.8133 22.5325C70.7109 22.319 71.6319 22.3737 72.5304 22.3983C72.0115 22.5013 71.3431 22.646 70.589 22.7531C72.6466 22.6776 74.7028 22.5746 76.7641 22.4218C77.3748 22.3389 77.6457 22.2384 77.1892 22.1108C79.0218 21.9811 80.3722 21.9725 80.8878 22.066C81.9447 21.963 83.003 21.8464 84.0622 21.7207C82.7241 21.6117 79.8285 21.862 82.9533 21.2957L85.8911 21.2976C86.3837 21.0771 91.0248 20.3846 90.7703 20.0385C92.4065 19.8259 92.6849 19.9414 94.0184 19.8073C95.2431 19.4038 96.1547 19.0958 97.7661 19.0405C94.1571 19.8696 90.558 20.7273 86.9237 21.3062C86.9682 21.3298 87.0882 21.3257 87.2433 21.3122C92.2861 20.6172 97.3316 19.7303 102.336 18.5822C102.793 18.3344 101.147 18.5184 100.883 18.4229C104.468 17.4582 104.722 17.9737 107.841 16.9306C102.947 17.9591 109.567 16.2663 111.092 15.4775C109.435 16.713 107.403 17.2446 105.574 17.7913C110.783 16.4341 115.953 14.674 120.933 12.2C123.414 10.9665 125.844 9.55764 128.202 7.94784C129.369 7.14846 130.478 6.17274 131.652 5.39246C132.542 4.8026 132.825 6.23246 132.828 7.07049C132.821 8.57573 132.254 10.3849 131.323 11.3772C130.703 12.0404 129.918 12.5283 129.216 13.0398C128.407 13.6347 127.588 14.2054 126.763 14.7481C126.715 14.7973 126.699 14.8275 126.72 14.83C126.649 14.8581 126.564 14.8938 126.479 14.9294C124.991 15.8966 123.48 16.7925 121.948 17.6125C122.372 17.512 122.988 17.2602 123.923 16.7262C121.569 18.4189 119.016 19.6986 116.46 20.7447C114.026 21.7365 111.489 22.6429 108.954 22.9635C108.874 22.9862 108.795 23.0133 108.711 23.0399C108.586 23.0937 107.871 23.2741 107.819 23.4876C107.804 23.5454 108.499 23.4358 108.538 23.4268C109.048 23.3273 109.552 23.2087 110.056 23.0811C111.091 22.8198 112.117 22.5208 113.155 22.2736C107.96 24.2643 102.673 25.6717 97.3453 26.8088C92.14 27.9193 86.9093 28.7796 81.6641 29.3681C81.0159 29.4419 80.3686 29.5068 79.7208 29.5761C79.4977 29.0506 78.4193 29.3616 76.6588 29.1245L75.5836 29.4039C75.9478 29.3099 75.2705 29.1698 75.5405 28.9959C69.7773 29.39 64.0151 29.4454 58.2614 29.131C59.2072 29.4405 60.1667 29.66 61.1444 29.7856C55.8485 29.2145 50.5287 29.1212 45.2582 28.2647C45.68 28.4798 46.1778 28.539 46.6249 28.6335C47.4648 28.8113 48.3123 28.958 49.1517 29.0991C50.713 29.3629 52.2784 29.6271 53.8518 29.7733C52.495 29.6803 51.1404 29.4824 49.791 29.3172C49.2131 29.2484 48.6357 29.175 48.0596 29.1293C47.8858 29.1178 47.3444 28.9846 47.1925 29.1725L46.7646 28.7279C42.7 28.2256 47.2675 29.1494 45.9163 29.2494C44.3934 29.0681 42.7619 28.9883 41.2944 28.4382C41.1219 28.3719 40.9077 28.296 40.7812 28.1161C40.7516 28.0714 40.7315 28.0187 40.7122 27.9569C40.5801 27.4605 40.1409 27.3716 39.773 27.2545C38.5435 27.0852 37.1628 26.8522 35.7604 26.7447C34.5366 26.7271 33.3377 26.6347 32.1149 26.8965C32.188 27.0151 32.2658 27.1296 32.3389 27.2482C32.2555 26.8995 33.033 27.5551 33.1118 27.6195C33.2585 28.6348 34.135 29.5311 34.7148 30.1586C35.1793 30.6625 35.6738 31.1242 36.1594 31.5895C37.4155 32.7781 38.6726 33.9578 39.9137 35.1676C40.1293 35.0651 37.8889 32.8666 37.7914 32.3651C39.018 33.7563 40.3346 35.0208 41.6114 36.3401C42.2559 37.0028 42.8947 37.6786 43.5087 38.3879C43.8593 38.7959 44.3421 39.2471 44.5535 39.8032C46.2638 41.5129 48.014 43.1678 49.6432 45.0006C51.2111 46.7665 52.6847 48.7822 53.5654 51.2445C53.3653 50.6622 53.1422 50.0955 52.9055 49.5363C52.8127 49.3192 52.5075 48.8023 52.6102 48.5536C52.8047 47.9954 52.1991 47.1634 51.9802 46.762C53.0578 48.6847 54.3078 51.0445 54.2113 53.5415C54.1041 56.2249 52.7233 58.8757 51.1199 60.5845C50.7145 60.9939 50.2688 61.2979 49.8081 61.5406C47.735 62.8364 45.3095 63.0007 43.0696 63.146C43.0714 63.2515 43.1971 63.358 43.513 63.5238C42.0384 63.7007 40.458 63.9519 39.0111 63.5324C37.7798 63.1753 36.407 63.2773 35.1476 63.2326C36.1319 63.2537 37.1208 63.2707 38.1028 63.2732C38.0226 63.2637 37.9462 63.2592 37.8661 63.2496C34.8031 63.1779 31.7504 62.883 28.7095 62.4751C28.8768 62.6324 29.2537 62.7871 28.3036 62.642C26.763 62.0145 25.0466 61.9291 23.4338 61.7508C21.8332 61.5785 20.2236 61.4509 18.6404 61.1525C19.5347 61.6298 20.4927 62.1513 21.485 62.7135C22.0549 63.2299 22.7538 63.5741 23.3851 63.9514C24.5278 64.6276 25.6818 65.2777 26.8404 65.9238C27.9869 66.5638 29.1446 67.1777 30.2976 67.7957C31.0095 68.178 31.7506 68.5272 32.4363 68.9979C31.1591 68.3011 30.0599 67.7399 28.426 66.9823L28.5474 67.5003C31.4511 68.9859 28.846 67.2566 31.5523 68.8743C30.8793 69.1879 27.5303 66.8482 25.5102 65.7791C26.1992 66.3006 27.1727 66.9613 28.4096 67.6762C27.7169 67.3144 27.0241 66.9527 26.3281 66.5814C27.1971 67.0557 28.0628 67.5204 28.9379 67.9771C28.7602 67.8781 28.5826 67.7791 28.4096 67.6762C29.9901 68.4961 31.5659 69.32 33.1768 70.0519C33.0475 69.8992 33.1337 69.85 33.6882 70.0213C35.4641 70.6859 37.24 71.3506 38.9424 72.272C39.8826 72.5945 40.6569 73.529 41.2728 74.5499C41.6164 74.902 41.928 75.1497 42.2051 75.6084C42.6166 76.3761 42.9419 77.3166 43.0858 78.2355C43.1172 78.5093 43.1458 78.7691 43.1041 79.0479C43.1936 78.5139 43.1013 77.9627 43 77.4563C42.8641 76.7901 42.7131 76.0214 42.3766 75.4778L42.2346 74.994C42.3312 75.1336 42.4127 75.2532 42.4928 75.3863C42.9301 76.1937 43.3234 77.1377 43.3984 78.1446C43.4655 79.0635 43.166 80.1402 42.2853 79.985C42.2272 79.9689 42.1405 79.9402 42.1039 79.9222C42.0673 79.9041 42.1405 79.9402 42.1039 79.9222L42.1231 79.9016ZM16.0405 60.7743C16.0405 60.7743 16.0194 60.7718 16.0025 60.7698C16.4248 61.0215 16.8504 61.2827 17.2774 61.5304C17.306 61.543 17.3308 61.5505 17.3552 61.5626C16.7642 61.1672 16.3569 60.9356 16.04 60.7788C16.0274 60.7773 16.3611 60.9361 16.04 60.7788L16.0405 60.7743ZM104.439 17.8621C102.691 18.2857 103.358 18.2415 102.511 18.5435C103.281 18.3651 104.052 18.1777 104.824 17.9812L104.439 17.8576L104.439 17.8621ZM51.6029 47.9301C50.6824 46.5525 49.6128 45.3357 48.5146 44.1887C49.6863 45.4497 50.815 46.7972 51.7745 48.335C51.9301 48.5229 52.1096 48.7686 52.336 49.0977C52.336 49.0977 52.0665 48.6078 51.6071 47.9306C51.1525 47.2493 52.066 48.6124 51.6071 47.9306L51.6029 47.9301ZM17.8614 61.458C16.9774 61.0461 17.0126 61.2425 17.4293 61.5897C17.4944 61.6203 17.5263 61.6424 17.508 61.654C17.5202 61.66 17.5277 61.6701 17.5394 61.6806C18.841 62.4307 20.1585 63.1506 21.4672 63.8741C20.2312 63.1501 18.9975 62.4036 17.8614 61.458C18.8682 62.292 16.9774 61.0461 17.8614 61.458Z" fill="white"/>
<path d="M46.172 75.2621C45.8599 75.225 45.4371 75.1426 44.6464 74.9019C45.2698 75.0265 45.7615 75.1446 46.172 75.2621Z" fill="white"/>
<path d="M132.106 10.6839C132.226 10.6387 132.332 10.601 132.415 10.5789C132.236 10.6583 132.139 10.6924 132.106 10.6839Z" fill="white"/>
<path d="M136.622 0.482709C136.275 0.73895 135.924 0.990171 135.578 1.24189C135.873 0.947467 136.169 0.648518 136.469 0.350075C136.498 0.321436 136.525 0.301844 136.544 0.281245C136.591 0.24105 136.615 0.220957 136.615 0.220957C137.322 -0.13427 138.072 -0.118215 138.556 0.69468C138.781 1.074 138.895 1.54526 138.944 2.01803C138.974 2.26421 139.08 3.21981 138.888 3.4258C138.866 3.39114 138.857 3.34893 138.871 3.3002C139.02 1.61057 138.245 -0.674396 136.63 0.483715C136.432 0.624899 136.769 0.381218 136.63 0.483715L136.622 0.482709Z" fill="white"/>
<path d="M125.617 7.48968C125.016 7.63791 124.412 7.78112 124.412 7.78112C126.328 6.88778 128.284 6.26925 130.144 5.18147C129.05 5.88438 127.944 6.54458 126.828 7.17163C126.828 7.17163 126.227 7.3289 125.621 7.49019C125.021 7.63842 126.227 7.3289 125.621 7.49019L125.617 7.48968Z" fill="white"/>
<path d="M120.601 10.1059L121.424 9.91095C120.678 10.1516 120.513 10.1732 120.601 10.1059Z" fill="white"/>
<path d="M121.273 9.34824C122.424 8.96336 123.566 8.52723 123.566 8.52723C122.995 8.80257 122.425 9.07339 121.851 9.33918C121.857 9.48186 120.751 9.98181 120.601 10.1059C120.011 10.2371 119.417 10.3632 118.819 10.4888C119.25 10.3707 120.119 10.1079 120.413 9.94614L118.963 10.0894C118.963 10.0894 120.122 9.74669 121.273 9.35276C120.122 9.74669 122.423 8.96788 121.273 9.35276L121.273 9.34824Z" fill="white"/>
<path d="M116.482 11.3274C116.579 11.2565 116.711 11.1762 116.778 11.1063C116.821 11.1435 116.702 11.2209 116.482 11.3274Z" fill="white"/>
<path d="M65.3108 18.0375L67.5704 18.1143L68.273 18.3399C67.2878 18.2455 66.2988 18.146 65.3108 18.0375Z" fill="white"/>
<path d="M50.6493 16.6075C50.7927 16.6658 50.8049 16.713 50.7196 16.7532C50.6653 16.701 50.6362 16.6518 50.6493 16.6075Z" fill="white"/>
<path d="M35.624 30.4736C35.8747 30.8559 36.0885 31.1835 36.4325 31.6548C36.0796 31.2282 35.8335 30.8419 35.624 30.4736Z" fill="white"/>
<path d="M51.5919 16.5779L50.2734 16.3202L51.216 16.2905L51.5919 16.5779Z" fill="white"/>
<path d="M37.3465 32.8897C37.5884 33.2755 37.8391 33.6579 38.0861 34.0352L37.4557 33.2368C36.8933 32.6068 36.7855 32.2461 37.3465 32.8897Z" fill="white"/>
<path d="M40.994 36.3452C41.3943 36.6446 41.795 36.9395 41.795 36.9395L42.5998 37.9921C41.7931 37.246 40.9912 36.4959 40.1944 35.7373C40.1944 35.7373 40.5942 36.0412 40.994 36.3452C41.3943 36.6446 40.5942 36.0412 40.994 36.3452Z" fill="white"/>
<path d="M21.0077 62.3141C18.4823 60.9697 16.4247 59.1912 14.1168 57.4378C16.2588 58.8968 19.0888 60.9275 21.0077 62.3141Z" fill="white"/>
<path d="M36.8917 71.7264C37.6271 72.0474 38.3761 72.3609 39.0679 72.8141C39.2118 72.909 39.3594 73.009 39.4818 73.1472C39.7335 73.438 39.4387 73.5632 39.2587 73.734C38.6503 73.3411 37.7855 72.8674 39.1828 73.4778C38.4183 72.9015 37.6543 72.3207 36.8912 71.7309L36.8917 71.7264Z" fill="white"/>
<path d="M37.8767 63.54C38.996 64.1539 40.127 64.7372 41.2748 65.2813C40.6726 65.0356 40.0745 64.7905 39.4731 64.5358C40.2938 65.1462 40.8947 65.529 42.1809 66.2223C39.587 65.1261 37.2379 63.6882 37.881 63.5405L37.8767 63.54Z" fill="white"/>
<path d="M44.044 66.9522C44.6134 67.0201 45.0784 67.1899 45.5199 67.6682C45.0568 67.3155 44.5581 67.1416 44.044 66.9522C44.2746 67.0346 44.1452 66.9643 44.044 66.9522Z" fill="white"/>
<path d="M42.1767 66.2218C42.8024 66.4886 43.4384 66.7382 44.0444 66.9477C43.3831 66.8598 42.7804 66.5363 42.1767 66.2218C42.8024 66.4886 42.3309 66.2997 42.1767 66.2218Z" fill="white"/>
<path d="M29.3379 59.2777L31.62 60.4147C31.9879 61.0261 34.42 61.7048 35.2136 62.5363C33.2422 61.4913 31.2905 60.38 29.3379 59.2777Z" fill="white"/>
<path d="M48.9821 60.056C49.0402 60.0308 49.1503 59.9982 49.3378 59.961C49.2272 59.9982 49.1049 60.0248 48.9821 60.056Z" fill="white"/>
<path d="M48.9821 60.056C48.467 60.2876 52.3469 60.1408 47.8394 60.5745C46.0428 60.3972 44.2346 60.4153 42.4329 60.329C40.5169 60.2335 38.6032 60.0743 36.6932 59.9201L37.4019 59.6337C39.3835 59.7965 41.3493 60.0717 43.3277 60.2249C45.1875 60.3686 47.1288 60.5082 48.9821 60.056C48.467 60.2876 47.7335 60.3605 48.9821 60.056Z" fill="white"/>
<path d="M55.4145 58.0662C54.777 58.2009 54.2366 58.5531 53.6479 58.8767C53.3808 59.0234 53.109 59.1329 52.8245 59.1997C52.6974 59.2304 52.046 59.4183 51.9686 59.258C51.9681 59.2626 52.9655 58.8274 53.0555 58.7832C53.5669 58.629 54.0768 58.4471 54.5802 58.2461C54.7541 58.1753 55.4323 57.7296 55.5907 57.8492C55.6301 57.8813 55.4098 58.0702 55.4145 58.0662C55.7819 57.7346 54.7377 58.2099 55.4145 58.0662Z" fill="white"/>
<path d="M55.8252 41.3704C55.2145 40.6294 54.584 39.9135 54.0174 39.1182C53.5622 38.4826 53.2327 37.7476 52.75 37.1316C53.6447 37.934 54.5128 38.8293 55.2566 39.8517C55.4207 40.0818 55.7966 40.4927 55.8172 40.8293C55.8233 40.9766 55.0931 40.3174 55.0546 40.2762C55.9607 41.2996 57.1156 42.8882 55.8214 41.3654C54.5053 39.7668 57.1113 42.8877 55.8214 41.3654L55.8252 41.3704Z" fill="white"/>
<path d="M41.7704 22.9201C42.4903 23.1432 43.2097 23.3708 43.9283 23.6074L42.915 23.5371C42.5353 23.3271 42.151 23.1211 41.7704 22.9201Z" fill="white"/>
<path d="M68.3359 26.3856C66.9579 26.3313 65.5851 26.2686 64.2095 26.1918L65.5743 26.0018L68.3359 26.3856Z" fill="white"/>
<path d="M71.5868 26.0448C72.4966 26.0433 73.4068 26.0373 73.4068 26.0373L72.1244 26.1729C70.3635 26.27 70.9761 26.0454 69.7612 26.0243C69.7612 26.0243 70.6743 26.0323 71.5868 26.0448C72.4966 26.0433 70.6743 26.0323 71.5868 26.0448Z" fill="white"/>
<path d="M78.0455 25.903C77.2187 25.8869 76.3919 25.8709 76.3919 25.8709C77.8332 25.8502 79.2712 25.8201 80.7148 25.7768C80.2451 25.7758 79.9686 25.8482 79.7014 25.9125C79.7014 25.9125 78.8733 25.91 78.0455 25.903C78.8737 25.9055 77.2187 25.8869 78.0455 25.903Z" fill="white"/>
</svg>
