<svg width="97" height="73" viewBox="0 0 97 73" fill="none" xmlns="http://www.w3.org/2000/svg">
<path d="M20.5417 30.4509C18.3672 32.6873 14.9668 29.3808 17.1424 27.1445C34.1993 9.66601 62.3314 9.31658 79.8111 26.3746C82.0463 28.5491 78.741 31.9495 76.5046 29.7738C60.8913 14.5374 35.7803 14.8365 20.5417 30.4509ZM20.4844 72.7654C17.3567 72.7654 17.3567 68.0097 20.4844 68.0097H39.5863V61.3235H15.0539C7.28732 61.3235 0.941406 54.9776 0.941406 47.211V14.3461C0.941406 6.57956 7.28732 0.233643 15.0539 0.233643H81.9454C89.712 0.233643 96.0591 6.57956 96.0591 14.3461V47.211C96.0591 54.9776 89.712 61.3235 81.9454 61.3235H57.413V68.0097H76.5149C79.6426 68.0097 79.6426 72.7654 76.5149 72.7654C57.8381 72.7654 39.1612 72.7654 20.4844 72.7654ZM44.342 61.3235V68.0097H52.6573V61.3235H44.342ZM81.9454 4.9905H15.0539C9.91321 4.9905 5.69712 9.20545 5.69712 14.3461V47.211C5.69712 52.3517 9.91321 56.5678 15.0539 56.5678C37.3511 56.5678 59.6483 56.5678 81.9454 56.5678C87.0873 56.5678 91.3022 52.3517 91.3022 47.211V14.3461C91.3022 9.20545 87.0873 4.9905 81.9454 4.9905ZM37.5642 47.0632C35.3897 49.2985 31.9893 45.992 34.1638 43.7557C42.0644 35.6603 55.1011 35.4942 63.1987 43.3959C65.4351 45.5704 62.1287 48.9708 59.8923 46.7963C53.6621 40.715 43.6454 40.8296 37.5642 47.0632ZM25.3272 34.8572C38.0763 21.9442 58.9677 21.7449 71.9574 34.4207C74.2052 36.6479 70.8358 40.0059 68.6269 37.7981C57.4909 26.9554 39.6195 27.125 28.7012 38.19C26.5702 40.6921 22.8307 37.1898 25.3272 34.8572Z" fill="#7A4FF6"/>
</svg>
