<svg width="184" height="15" viewBox="0 0 184 15" fill="none" xmlns="http://www.w3.org/2000/svg">
<path d="M174.608 8.75335C172.127 9.03402 169.748 9.67851 167.041 9.31468C166.447 9.23152 165.729 9.43941 165.052 9.51218C162.612 9.79285 160.192 9.87602 157.793 9.21073C155.189 9.92799 152.523 10.3542 149.631 9.60577C149.242 9.50182 148.504 9.58498 148.094 9.70973C146.72 10.1463 145.243 10.1671 143.746 10.1151C141.408 10.032 139.112 10.0943 136.836 10.4062C135.236 10.6245 133.637 10.5829 131.976 10.4581C129.023 10.2399 126.07 10.1775 123.035 10.3646C120.492 10.5205 117.908 10.4893 115.489 10.9883C115.242 11.0403 114.914 11.0923 114.689 11.0611C112.331 10.6453 110.136 11.2794 107.86 11.3417C106.24 11.3833 104.6 11.3833 102.98 11.4457C100.273 11.5392 97.4841 11.4977 94.8593 11.8199C91.2297 12.2565 87.5795 12.2046 83.9294 12.3085C82.576 12.3501 81.1611 12.3501 79.9102 12.5476C75.0297 13.3376 69.9647 13.3376 64.9611 13.5975C59.9576 13.8574 54.9541 14.0965 49.9916 14.4915C48.2485 14.6267 46.4645 14.7098 44.701 14.7826C43.081 14.8449 41.42 14.7722 39.8 14.8865C36.2114 15.1464 32.7253 14.9385 29.0547 14.4811C28.3985 13.3065 28.7881 12.0902 29.3008 10.8948C29.4033 10.6349 30.162 10.3022 30.7362 10.2398C36.2319 9.64731 41.3174 8.4103 46.608 7.52671C48.8022 7.16288 51.1194 7.01734 53.3956 6.76786C55.7333 6.50798 58.1941 6.41443 60.6138 5.56203C59.6705 5.26057 59.0348 5.05265 58.2556 4.79277C55.9179 5.48925 53.3341 5.8323 50.6273 5.97784C46.0339 6.22732 41.6045 7.1109 36.8881 6.87181C36.519 6.85102 36.0473 6.93419 35.7192 7.03814C33.443 7.7658 30.7772 7.8074 28.296 8.15045C25.9172 8.4727 23.518 8.74293 21.1393 9.04439C20.8727 9.07558 20.6061 9.14834 20.36 9.14834C16.1562 9.10676 12.5676 10.271 8.60994 10.6765C6.08767 10.9363 3.58591 11.2586 1.02263 11.5705C-0.105219 10.822 -0.125735 10.0839 0.140846 9.33549C0.345909 8.72217 1.14565 8.38952 2.3145 8.23359C5.34943 7.83857 8.38436 7.41236 11.4398 7.05893C13.1623 6.86142 14.9464 6.80944 16.6894 6.6639C17.4892 6.59114 18.2479 6.44561 19.0271 6.33126C20.0729 6.17533 21.0983 5.98824 22.1441 5.8531C26.4914 5.29176 30.8387 4.72001 35.2066 4.20025C37.4622 3.92997 39.7384 3.68048 42.0351 3.54535C45.2956 3.34784 48.4946 3.05678 51.6526 2.56821C53.1906 2.32912 54.8516 2.31872 56.4716 2.22516C57.5584 2.16279 58.7272 2.27714 59.7115 2.10042C65.5353 1.04011 71.7692 1.11288 77.757 0.457979C81.3046 0.0733565 85.0368 -0.124147 88.7484 0.281265C89.6507 0.385217 90.635 0.322841 91.5783 0.302051C94.9823 0.208494 98.3864 0.0525763 101.79 0.000600315C102.672 -0.00979488 103.738 0.114947 104.456 0.364432C106.056 0.936168 106.24 1.67423 105.297 2.54742C104.231 3.53497 102.918 4.42895 100.765 4.85515C98.2428 5.35412 95.7 5.88428 93.0752 6.21693C87.9282 6.87183 82.7196 7.40198 77.5315 8.0049C77.1009 8.05687 76.7317 8.28557 75.8705 8.60782C76.8753 8.73257 77.3264 8.85732 77.7775 8.82613C78.7208 8.77416 79.6436 8.64939 80.5869 8.53504C83.9089 8.12963 87.231 7.77621 90.717 7.93214C91.7833 7.98411 92.8907 7.86977 93.9775 7.82819C95.3309 7.76581 96.7048 7.64105 98.0583 7.65145C105.851 7.70342 113.52 7.01734 121.23 6.71588C122.871 6.65351 124.511 6.63272 126.131 6.61193C132.406 6.51837 138.681 6.42483 144.956 6.34167C148.073 6.30009 151.21 6.63272 154.348 6.35205C155.681 6.22731 157.055 6.22731 158.429 6.17533C159.105 6.15454 159.946 6.01942 160.438 6.16495C162.53 6.81985 164.642 6.4768 166.775 6.33126C167.841 6.2585 168.969 6.30007 170.035 6.35205C170.527 6.37284 171.389 6.52877 171.43 6.6639C171.614 7.46433 172.968 7.51632 173.931 7.84897C174.362 8.0049 174.403 8.4519 174.629 8.76375L174.608 8.75335ZM67.8935 5.6036C68.3857 5.6036 68.8778 5.6036 69.37 5.6036C69.37 5.57241 69.37 5.54122 69.3495 5.52043C68.8368 5.55162 68.3242 5.57241 67.832 5.6036C67.7705 5.25016 67.6475 4.83437 66.8477 4.81358C65.6584 4.772 64.4075 4.78239 63.2591 4.91753C62.5209 5.00069 62.3979 5.39571 63.1976 5.80112C64.633 5.73875 66.253 5.67637 67.8935 5.6036ZM151.703 9.0548C152.666 9.25231 153.241 9.39786 153.856 9.49142C154.02 9.51221 154.409 9.39783 154.491 9.30427C154.574 9.20032 154.533 9.00284 154.389 8.91968C153.753 8.56624 153.036 8.48306 151.703 9.0548ZM73.5123 8.49347C72.9176 8.49347 72.4254 8.4727 71.9743 8.51428C71.8513 8.52467 71.7692 8.72214 71.6667 8.83649C72.1383 8.87807 72.6305 8.94045 73.1021 8.95085C73.1842 8.95085 73.2867 8.73256 73.5123 8.49347ZM161.894 7.43316C161.751 7.53711 161.587 7.64107 161.443 7.74502C161.833 7.81778 162.202 7.92173 162.591 7.94252C162.92 7.96331 163.289 7.90095 163.637 7.88016C163.412 7.73463 163.248 7.52671 162.961 7.45395C162.673 7.37079 162.263 7.43316 161.894 7.43316ZM156.809 7.31881C156.604 7.38118 156.296 7.42277 156.193 7.51633C155.927 7.76581 156.522 8.14002 157.26 8.17121C157.465 8.1816 157.793 8.07767 157.854 7.98411C158.08 7.70344 157.485 7.3396 156.809 7.31881ZM169.133 7.06933C168.805 6.96538 168.518 6.85103 168.21 6.80945C168.087 6.78866 167.882 6.93418 167.697 7.00695C167.964 7.1109 168.231 7.23566 168.538 7.30843C168.62 7.31882 168.846 7.17328 169.133 7.06933ZM73.9429 4.78239C73.7788 4.70962 73.5943 4.56409 73.4507 4.57448C73.2457 4.58488 73.0611 4.70962 72.8766 4.78239C73.0201 4.86555 73.2047 5.01107 73.3277 5.00067C73.5328 5.00067 73.6968 4.87595 73.9429 4.78239Z" fill="#B2F601"/>
<path d="M174.629 8.76375C175.121 8.27518 175.572 7.77613 176.105 7.29795C176.925 6.57029 178.197 6.20645 179.837 6.35198C181.252 6.47672 182.77 6.52872 184 6.94453C183.918 7.15243 183.918 7.34993 183.795 7.38112C182.195 7.69298 180.596 8.02561 178.955 8.27509C177.541 8.483 176.064 8.58695 174.608 8.74288C174.608 8.75327 174.629 8.76375 174.629 8.76375Z" fill="#B2F601"/>
</svg>
