<svg width="353" height="22" viewBox="0 0 353 22" fill="none" xmlns="http://www.w3.org/2000/svg">
<path d="M334.533 12.8382C329.786 13.2499 325.236 14.1951 320.057 13.6615C318.92 13.5396 317.547 13.8445 316.252 13.9512C311.584 14.3628 306.955 14.4848 302.365 13.5091C297.383 14.5611 292.283 15.1862 286.752 14.0885C286.006 13.936 284.594 14.058 283.809 14.2409C281.181 14.8813 278.356 14.9118 275.493 14.8355C271.021 14.7136 266.627 14.805 262.272 15.2624C259.213 15.5826 256.153 15.5216 252.975 15.3386C247.326 15.0184 241.677 14.927 235.871 15.2014C231.007 15.4301 226.064 15.3844 221.435 16.1162C220.964 16.1924 220.336 16.2687 219.905 16.2229C215.393 15.6131 211.196 16.5431 206.841 16.6346C203.742 16.6955 200.604 16.6955 197.505 16.787C192.326 16.9242 186.991 16.8633 181.97 17.3359C175.026 17.9762 168.043 17.9 161.061 18.0525C158.472 18.1135 155.765 18.1135 153.372 18.4031C144.035 19.5619 134.345 19.5619 124.773 19.943C115.202 20.3242 105.63 20.6749 96.136 21.2542C92.8015 21.4524 89.3886 21.5744 86.0149 21.6811C82.9158 21.7726 79.7382 21.6658 76.6391 21.8335C69.7739 22.2147 63.1049 21.9098 56.0829 21.239C54.8275 19.5161 55.5729 17.7323 56.5536 15.979C56.7498 15.5978 58.2013 15.1099 59.2997 15.0184C69.8132 14.1494 79.542 12.3351 89.6632 11.0392C93.8607 10.5056 98.2937 10.2921 102.648 9.92619C107.12 9.54503 111.828 9.40784 116.457 8.15764C114.652 7.7155 113.436 7.41055 111.945 7.02939C107.473 8.0509 102.53 8.55404 97.3522 8.76749C88.5648 9.1334 80.0913 10.4293 71.0685 10.0787C70.3624 10.0482 69.4601 10.1701 68.8324 10.3226C64.4779 11.3898 59.3781 11.4509 54.6314 11.954C50.0808 12.4266 45.4909 12.823 40.9403 13.2651C40.4303 13.3108 39.9203 13.4176 39.4496 13.4176C31.4076 13.3566 24.5425 15.0642 16.9712 15.6588C12.146 16.04 7.36 16.5126 2.45633 16.97C0.298712 15.8723 0.259463 14.7898 0.769445 13.692C1.16174 12.7925 2.69167 12.3046 4.92775 12.0759C10.7337 11.4966 16.5396 10.8715 22.3848 10.3531C25.6801 10.0634 29.0931 9.98717 32.4276 9.77373C33.9575 9.667 35.409 9.45356 36.8997 9.28585C38.9004 9.05716 40.8619 8.78275 42.8626 8.58455C51.1792 7.76125 59.4958 6.92268 67.8517 6.16036C72.1669 5.76396 76.5214 5.39804 80.9151 5.19984C87.1525 4.91016 93.2723 4.48328 99.3137 3.7667C102.256 3.41604 105.433 3.40079 108.533 3.26357C110.612 3.17209 112.848 3.33981 114.731 3.08062C125.872 1.5255 137.798 1.63222 149.253 0.671702C156.039 0.10759 163.179 -0.182082 170.28 0.412523C172.006 0.564985 173.889 0.4735 175.693 0.443008C182.205 0.305791 188.717 0.0771119 195.229 0.000880463C196.916 -0.0143658 198.956 0.16859 200.329 0.5345C203.389 1.37305 203.742 2.45553 201.938 3.73622C199.898 5.18462 197.387 6.49579 193.268 7.12089C188.443 7.85271 183.578 8.63028 178.557 9.11817C168.71 10.0787 158.746 10.8562 148.821 11.7405C147.997 11.8167 147.291 12.1522 145.644 12.6248C147.566 12.8078 148.429 12.9907 149.292 12.945C151.096 12.8688 152.862 12.6858 154.666 12.5181C161.021 11.9235 167.377 11.4051 174.046 11.6338C176.086 11.71 178.204 11.5423 180.283 11.4813C182.872 11.3899 185.501 11.2069 188.09 11.2221C202.997 11.2984 217.669 10.2921 232.419 9.84996C235.557 9.75848 238.696 9.72799 241.795 9.69749C253.799 9.56028 265.803 9.42308 277.807 9.30111C283.77 9.24013 289.772 9.72799 295.774 9.31634C298.324 9.13338 300.953 9.13339 303.581 9.05716C304.876 9.02666 306.484 8.82849 307.425 9.04193C311.427 10.0024 315.467 9.4993 319.547 9.28585C321.587 9.17913 323.745 9.24011 325.785 9.31634C326.726 9.34683 328.374 9.57552 328.452 9.77373C328.805 10.9477 331.395 11.0239 333.238 11.5118C334.062 11.7405 334.141 12.3961 334.572 12.8535L334.533 12.8382ZM130.383 8.21861C131.325 8.21861 132.266 8.21861 133.208 8.21861C133.208 8.17287 133.208 8.12713 133.169 8.09663C132.188 8.14237 131.207 8.17287 130.266 8.21861C130.148 7.70024 129.913 7.09041 128.383 7.05992C126.107 6.99893 123.714 7.01418 121.517 7.21238C120.105 7.33435 119.87 7.91371 121.4 8.50831C124.146 8.41684 127.245 8.32534 130.383 8.21861ZM290.714 13.2804C292.557 13.57 293.656 13.7835 294.833 13.9207C295.147 13.9512 295.892 13.7835 296.049 13.6463C296.206 13.4938 296.127 13.2042 295.853 13.0822C294.637 12.5638 293.264 12.4418 290.714 13.2804ZM141.132 12.4571C139.995 12.4571 139.053 12.4266 138.19 12.4876C137.955 12.5029 137.798 12.7925 137.602 12.9602C138.504 13.0212 139.445 13.1127 140.348 13.1279C140.504 13.1279 140.701 12.8078 141.132 12.4571ZM310.211 10.902C309.936 11.0544 309.622 11.2069 309.348 11.3594C310.093 11.4661 310.799 11.6185 311.545 11.649C312.172 11.6795 312.878 11.5881 313.545 11.5576C313.114 11.3441 312.8 11.0392 312.251 10.9325C311.701 10.8105 310.917 10.902 310.211 10.902ZM300.482 10.7342C300.09 10.8257 299.501 10.8867 299.305 11.024C298.795 11.3899 299.933 11.9387 301.345 11.9844C301.737 11.9997 302.365 11.8472 302.483 11.71C302.914 11.2984 301.776 10.7647 300.482 10.7342ZM324.059 10.3684C323.431 10.2159 322.882 10.0482 322.293 9.9872C322.058 9.9567 321.666 10.1701 321.313 10.2769C321.823 10.4293 322.333 10.6123 322.921 10.719C323.078 10.7343 323.509 10.5208 324.059 10.3684ZM141.956 7.01417C141.642 6.90745 141.289 6.694 141.014 6.70924C140.622 6.72449 140.269 6.90745 139.916 7.01417C140.191 7.13614 140.544 7.34957 140.779 7.33432C141.171 7.33432 141.485 7.15139 141.956 7.01417Z" fill="#B2F601"/>
<path d="M334.572 12.8535C335.514 12.1369 336.377 11.405 337.397 10.7037C338.966 9.63643 341.398 9.10279 344.536 9.31624C347.243 9.49919 350.146 9.57546 352.5 10.1853C352.343 10.4902 352.343 10.7799 352.108 10.8256C349.048 11.283 345.988 11.7709 342.85 12.1368C340.143 12.4417 337.318 12.5942 334.533 12.8229C334.533 12.8381 334.572 12.8535 334.572 12.8535Z" fill="#B2F601"/>
</svg>
