<svg width="228" height="14" viewBox="0 0 228 14" fill="none" xmlns="http://www.w3.org/2000/svg">
<path d="M215.913 8.16979C212.852 8.43175 209.918 9.03328 206.578 8.6937C205.844 8.61608 204.959 8.81012 204.124 8.87803C201.114 9.13999 198.128 9.21762 195.169 8.59668C191.956 9.26613 188.667 9.66395 185.1 8.96539C184.619 8.86837 183.708 8.94598 183.202 9.06241C181.507 9.4699 179.686 9.4893 177.839 9.44079C174.955 9.36317 172.122 9.42136 169.313 9.71243C167.34 9.91617 165.367 9.87737 163.318 9.76094C159.675 9.55719 156.032 9.49899 152.288 9.67363C149.151 9.81916 145.963 9.79005 142.978 10.2558C142.674 10.3043 142.269 10.3528 141.991 10.3237C139.082 9.93561 136.375 10.5274 133.567 10.5856C131.568 10.6244 129.544 10.6244 127.546 10.6826C124.206 10.77 120.766 10.7312 117.527 11.0319C113.05 11.4394 108.547 11.3909 104.043 11.488C102.374 11.5268 100.628 11.5267 99.0849 11.7111C93.0638 12.4485 86.8151 12.4485 80.6423 12.691C74.4694 12.9336 68.2966 13.1567 62.1744 13.5254C60.024 13.6515 57.8231 13.7291 55.6474 13.7971C53.6488 13.8553 51.5996 13.7874 49.601 13.8941C45.1738 14.1366 40.8731 13.9426 36.3446 13.5157C35.5351 12.4194 36.0158 11.2842 36.6482 10.1684C36.7747 9.92589 37.7108 9.6154 38.4191 9.55718C45.1991 9.00416 51.4731 7.84961 58.0001 7.02493C60.7071 6.68535 63.5658 6.54952 66.3739 6.31667C69.258 6.07411 72.2938 5.9868 75.279 5.19123C74.1153 4.90986 73.331 4.71581 72.3697 4.47325C69.4856 5.1233 66.298 5.44348 62.9586 5.57931C57.2918 5.81217 51.8273 6.63684 46.0087 6.41369C45.5533 6.39428 44.9714 6.47191 44.5666 6.56893C41.7585 7.24808 38.4697 7.28691 35.4086 7.60708C32.474 7.90785 29.514 8.16007 26.5794 8.44143C26.2505 8.47054 25.9216 8.53846 25.6181 8.53846C20.4319 8.49965 16.0047 9.58631 11.122 9.96469C8.01033 10.2072 4.92392 10.508 1.76161 10.7991C0.370192 10.1005 0.344881 9.41168 0.673761 8.71312C0.926746 8.14069 1.91338 7.83021 3.35539 7.68468C7.09957 7.316 10.8437 6.9182 14.6132 6.58833C16.7383 6.40399 18.9393 6.35547 21.0897 6.21964C22.0763 6.15173 23.0123 6.0159 23.9737 5.90918C25.2639 5.76365 26.5288 5.58902 27.819 5.46289C33.1823 4.93897 38.5456 4.40534 43.9342 3.92023C46.717 3.66797 49.5251 3.43512 52.3586 3.30899C56.381 3.12465 60.3276 2.853 64.2236 2.39699C66.121 2.17384 68.1701 2.16414 70.1687 2.07682C71.5095 2.0186 72.9515 2.12533 74.1659 1.9604C81.3506 0.970774 89.0414 1.03868 96.4285 0.427447C100.805 0.0684661 105.409 -0.115871 109.989 0.262514C111.102 0.359536 112.316 0.301318 113.48 0.281914C117.679 0.194594 121.879 0.0490712 126.078 0.000560294C127.166 -0.00914189 128.482 0.107284 129.367 0.340137C131.34 0.873756 131.568 1.56261 130.404 2.37759C129.089 3.2993 127.47 4.13368 124.813 4.53147C121.702 4.99718 118.565 5.492 115.327 5.80247C108.977 6.41371 102.551 6.90851 96.1503 7.47124C95.619 7.51975 95.1636 7.7332 94.1011 8.03397C95.3407 8.1504 95.8973 8.26683 96.4538 8.23773C97.6176 8.18921 98.756 8.07276 99.9197 7.96604C104.018 7.58765 108.116 7.2578 112.417 7.40333C113.733 7.45184 115.099 7.34512 116.44 7.30631C118.109 7.24809 119.804 7.13165 121.474 7.14135C131.087 7.18986 140.549 6.54952 150.061 6.26815C152.085 6.20994 154.109 6.19054 156.108 6.17113C163.849 6.08381 171.59 5.99651 179.332 5.91889C183.177 5.88008 187.048 6.19054 190.918 5.92858C192.563 5.81215 194.258 5.81216 195.953 5.76365C196.788 5.74424 197.825 5.61813 198.432 5.75396C201.012 6.36519 203.618 6.04501 206.249 5.90918C207.565 5.84126 208.956 5.88007 210.272 5.92858C210.879 5.94798 211.941 6.09351 211.992 6.21964C212.22 6.96671 213.889 7.01524 215.078 7.32571C215.61 7.47124 215.66 7.88844 215.939 8.1795L215.913 8.16979ZM84.26 5.23003C84.8671 5.23003 85.4743 5.23003 86.0814 5.23003C86.0814 5.20092 86.0815 5.17181 86.0562 5.1524C85.4237 5.18151 84.7912 5.20092 84.1841 5.23003C84.1082 4.90015 83.9564 4.51208 82.9697 4.49267C81.5024 4.45387 79.9592 4.46357 78.5425 4.5897C77.6318 4.66731 77.48 5.036 78.4666 5.41438C80.2375 5.35617 82.2361 5.29794 84.26 5.23003ZM187.655 8.45114C188.844 8.63549 189.552 8.77134 190.311 8.85865C190.514 8.87806 190.994 8.77131 191.095 8.68399C191.197 8.58697 191.146 8.40265 190.969 8.32504C190.185 7.99516 189.299 7.91752 187.655 8.45114ZM91.1918 7.92724C90.4581 7.92724 89.8509 7.90785 89.2944 7.94666C89.1426 7.95636 89.0414 8.14067 88.9149 8.24739C89.4968 8.2862 90.1039 8.34442 90.6858 8.35412C90.787 8.35412 90.9135 8.15039 91.1918 7.92724ZM200.228 6.93762C200.051 7.03464 199.849 7.13166 199.672 7.22868C200.152 7.2966 200.608 7.39361 201.088 7.41302C201.493 7.43242 201.948 7.37422 202.379 7.35482C202.1 7.21899 201.898 7.02493 201.544 6.95702C201.19 6.8794 200.684 6.93762 200.228 6.93762ZM193.954 6.83089C193.701 6.8891 193.322 6.92792 193.195 7.01524C192.866 7.24809 193.6 7.59735 194.511 7.62646C194.764 7.63616 195.169 7.53916 195.244 7.45184C195.523 7.18988 194.789 6.85029 193.954 6.83089ZM209.159 6.59804C208.754 6.50102 208.4 6.3943 208.02 6.35549C207.868 6.33608 207.615 6.4719 207.388 6.53982C207.717 6.63684 208.045 6.75328 208.425 6.8212C208.526 6.8309 208.804 6.69506 209.159 6.59804ZM91.723 4.46356C91.5206 4.39565 91.2929 4.25982 91.1159 4.26952C90.8629 4.27922 90.6352 4.39565 90.4075 4.46356C90.5846 4.54118 90.8123 4.677 90.9641 4.66729C91.217 4.66729 91.4194 4.55088 91.723 4.46356Z" fill="#B2F601"/>
<path d="M215.939 8.1795C216.546 7.7235 217.102 7.25772 217.76 6.81142C218.772 6.13227 220.341 5.79269 222.364 5.92852C224.11 6.04494 225.982 6.09347 227.5 6.48156C227.399 6.6756 227.399 6.85994 227.247 6.88905C225.274 7.18011 223.3 7.49057 221.277 7.72342C219.531 7.91746 217.709 8.01448 215.913 8.16002C215.913 8.16972 215.939 8.1795 215.939 8.1795Z" fill="#B2F601"/>
</svg>
