<svg width="88" height="50" viewBox="0 0 88 50" fill="none" xmlns="http://www.w3.org/2000/svg">
<path d="M32.6066 34.9718C28.5446 34.9718 25.262 38.2661 25.262 42.3282C25.262 46.3782 28.5446 49.6727 32.6066 49.6727C36.6685 49.6727 39.9511 46.3782 39.9511 42.3282C39.951 38.2661 36.6685 34.9718 32.6066 34.9718ZM32.6066 46.0004C30.5755 46.0004 28.9342 44.3471 28.9342 42.3279C28.9342 40.2971 30.5755 38.6556 32.6066 38.6556C34.6375 38.6556 36.2789 40.2971 36.2789 42.3279C36.2787 44.3471 34.6375 46.0004 32.6066 46.0004ZM88 29.5381V37.3806C88 39.3369 86.4141 40.9229 84.4576 40.9229H80.6673C79.9824 36.2232 75.9324 32.6101 71.0438 32.6101C66.1672 32.6101 62.1169 36.2234 61.4321 40.9229H42.2206C41.5357 36.2232 37.4856 32.6101 32.6089 32.6101C27.7322 32.6101 23.6821 36.2234 22.9973 40.9229H18.2505C16.2941 40.9229 14.7082 39.337 14.7082 37.3806V29.5381H88ZM71.0532 34.9718C66.9913 34.9718 63.6969 38.2661 63.6969 42.3282C63.6969 46.3782 66.9914 49.6727 71.0532 49.6727C75.1033 49.6727 78.3976 46.3782 78.3976 42.3282C78.3976 38.2661 75.1033 34.9718 71.0532 34.9718ZM71.0532 46.0004C69.0222 46.0004 67.381 44.3471 67.381 42.3279C67.381 40.2971 69.0222 38.6556 71.0532 38.6556C73.0724 38.6556 74.7255 40.2971 74.7255 42.3279C74.7255 44.3471 73.0724 46.0004 71.0532 46.0004ZM86.6042 21.6405L72.6828 7.87243C71.7972 6.99861 70.6046 6.50268 69.3647 6.50268H62.3391V3.86944C62.3391 1.90942 60.7568 0.327148 58.7968 0.327148H18.2481C16.2997 0.327148 14.7058 1.90957 14.7058 3.86944V4.42447L0.330719 6.08123L25.8027 9.39819L0 11.9614L25.7118 15.617L0 17.8463L14.7066 20.6201L14.7056 27.58H87.9976V24.9939C87.9976 23.7304 87.4898 22.5262 86.6042 21.6405ZM80.535 22.101H67.0622C66.7552 22.101 66.5072 21.8531 66.5072 21.5461V11.1432C66.5072 10.8362 66.7552 10.5882 67.0622 10.5882H69.6245C69.7662 10.5882 69.908 10.6473 70.0142 10.7418L80.913 21.1446C81.2788 21.487 81.0307 22.101 80.535 22.101Z" fill="#7A4FF6"/>
</svg>
