<svg width="66" height="66" viewBox="0 0 66 66" fill="none" xmlns="http://www.w3.org/2000/svg">
<path d="M34.8036 12.0649C25.2954 12.0649 17.5596 18.7485 17.5596 26.9637C17.5596 29.3343 18.2203 31.6934 19.4697 33.7857C19.763 34.2778 20.4635 34.4704 21.0326 34.2171C21.6021 33.9632 21.8257 33.3587 21.5317 32.8667C20.4358 31.0313 19.8798 29.0452 19.8798 26.9637C19.8798 19.8538 26.5744 14.0698 34.8034 14.0698C43.0325 14.0698 49.7271 19.8538 49.7271 26.9637C49.7271 31.2387 47.281 35.2279 43.183 37.6346C42.6531 37.946 42.5158 38.5694 42.8759 39.0273C43.1006 39.3126 43.4649 39.4661 43.8362 39.4661C44.0611 39.4661 44.2878 39.4098 44.4875 39.2926C49.2216 36.5121 52.0476 31.9033 52.0476 26.9637C52.0478 18.7485 44.3121 12.0649 34.8036 12.0649Z" fill="#7A4FF6"/>
<path d="M38.5741 36.4693C38.7121 36.4693 38.8524 36.4477 38.989 36.4024C43.4815 34.9144 46.4996 31.1215 46.4996 26.9636C46.4996 21.3915 41.253 16.8584 34.8037 16.8584C28.3546 16.8584 23.1074 21.3915 23.1074 26.9636C23.1074 29.5539 24.2405 32.017 26.2981 33.8998C26.7375 34.3024 27.4721 34.321 27.9379 33.9406C28.4041 33.5605 28.4252 32.9263 27.985 32.5238C26.3361 31.0143 25.4277 29.0397 25.4277 26.9636C25.4277 22.4971 29.6338 18.8633 34.8035 18.8633C39.9733 18.8633 44.1792 22.4971 44.1792 26.9636C44.1792 30.297 41.7594 33.3376 38.1582 34.5306C37.56 34.7289 37.261 35.3086 37.4901 35.8255C37.6674 36.2242 38.1072 36.4693 38.5741 36.4693Z" fill="#7A4FF6"/>
<path d="M12.9881 38.2389C13.6288 38.2389 14.1483 37.7899 14.1483 37.2364C14.1483 36.683 13.6288 36.2342 12.9881 36.2342H9.742C9.10147 36.2342 8.58203 36.683 8.58203 37.2364V51.1806C8.58203 51.734 9.10147 52.1829 9.742 52.1829H17.2233H38.3108C41.0642 52.1829 43.7863 51.388 45.9752 49.9446L53.0181 45.3007C54.9794 44.0077 55.387 41.558 53.9268 39.8402C52.4649 38.1201 49.6353 37.7241 47.619 38.9576L44.0135 41.1638C43.4907 41.4839 43.3672 42.1095 43.7375 42.5614C44.1081 43.0129 44.832 43.1197 45.3549 42.7999L48.9605 40.5936C49.9504 39.9875 51.3395 40.1828 52.0564 41.0268C52.7735 41.8701 52.5735 43.0724 51.6106 43.707L44.5676 48.3508C42.7803 49.5292 40.5586 50.1781 38.3108 50.1781H18.3834V38.2387H26.2376C27.6003 38.2387 28.8872 38.6918 29.8614 39.5148C31.2724 40.7057 33.1354 41.3615 35.1075 41.3615H37.355C38.4074 41.3615 39.2632 42.1009 39.2632 43.0099C39.2632 44.2218 38.1223 45.2079 36.7194 45.2079H28.5789C27.9384 45.2079 27.4188 45.6567 27.4188 46.2101C27.4188 46.7636 27.9384 47.2124 28.5789 47.2124H36.7194C39.4014 47.2124 41.5835 45.3271 41.5835 43.0099C41.5835 40.9959 39.6866 39.3568 37.355 39.3568H35.1075C33.7449 39.3568 32.4579 38.9036 31.4832 38.0809C30.0732 36.8895 28.2102 36.2339 26.2376 36.2339H17.2231C16.5826 36.2339 16.063 36.6827 16.063 37.2361V50.1779H10.9021V38.2386H12.9881V38.2389Z" fill="#7A4FF6"/>
<path d="M34.8036 34.3305C35.4443 34.3305 35.9637 33.8815 35.9637 33.3281V32.5166C37.5974 32.2562 38.8396 31.0187 38.8396 29.5331C38.8396 27.8587 37.2631 26.4966 35.3251 26.4966H35.1458H34.4641H34.2848C33.6263 26.4966 33.0906 26.034 33.0906 25.4651C33.0906 24.8961 33.6263 24.4336 34.2848 24.4336H36.9975C37.6382 24.4336 38.1576 23.9846 38.1576 23.4312C38.1576 22.8778 37.6382 22.4289 36.9975 22.4289H35.9639V21.7887C35.9639 21.2352 35.4445 20.7864 34.8038 20.7864C34.1632 20.7864 33.6438 21.2353 33.6438 21.7887V22.482C32.0113 22.7434 30.7705 23.9805 30.7705 25.4652C30.7705 27.1394 32.347 28.5014 34.285 28.5014H34.4643H35.146H35.3253C35.9838 28.5014 36.5195 28.9643 36.5195 29.5332C36.5195 30.1022 35.9838 30.5647 35.3253 30.5647H32.6126C31.9721 30.5647 31.4525 31.0137 31.4525 31.5671C31.4525 32.1207 31.9721 32.5695 32.6126 32.5695H33.6438V33.3282C33.6436 33.8815 34.1631 34.3305 34.8036 34.3305Z" fill="#7A4FF6"/>
<path d="M64.3358 58.0206L54.8634 52.3686C54.3363 52.0541 53.6134 52.1681 53.2494 52.6237C52.8853 53.0793 53.0175 53.7036 53.5447 54.0183L61.6348 58.8456L55.3644 62.5874V60.8927C55.3644 60.3393 54.8447 59.8904 54.2042 59.8904H17.7509V57.8006H54.2042C54.8447 57.8006 55.3644 57.3516 55.3644 56.7982C55.3644 56.2448 54.8447 55.796 54.2042 55.796H16.5906C15.9501 55.796 15.4307 56.2448 15.4307 56.7982V60.8927C15.4307 61.4461 15.9501 61.8949 16.5906 61.8949H53.0439V64.4977C53.0439 64.8703 53.2832 65.2123 53.6651 65.3854C53.8345 65.4622 54.0194 65.5001 54.2041 65.5001C54.4356 65.5001 54.6659 65.4402 54.8634 65.3225L64.3358 59.6702C64.6496 59.483 64.8368 59.1745 64.8368 58.8454C64.8368 58.516 64.6496 58.2076 64.3358 58.0206Z" fill="#7A4FF6"/>
<path d="M11.7026 55.7957H6.54881C5.90829 55.7957 5.38867 56.2445 5.38867 56.7979V60.8925C5.38867 61.4459 5.90829 61.8947 6.54881 61.8947H11.7026C12.3432 61.8947 12.8626 61.4459 12.8626 60.8925V56.7979C12.8626 56.2445 12.3432 55.7957 11.7026 55.7957ZM10.5423 59.8902H7.70895V57.8004H10.5423V59.8902Z" fill="#7A4FF6"/>
<path d="M1.66014 55.7957C1.01961 55.7957 0.5 56.2445 0.5 56.7979V60.8925C0.5 61.4459 1.01961 61.8947 1.66014 61.8947C2.30067 61.8947 2.82028 61.4459 2.82028 60.8925V56.7979C2.82028 56.2445 2.30067 55.7957 1.66014 55.7957Z" fill="#7A4FF6"/>
<path d="M1.66403 7.97966L11.1364 13.632C11.3379 13.752 11.5673 13.8096 11.7948 13.8096C12.1632 13.8096 12.5256 13.6585 12.7504 13.3769C13.1145 12.9213 12.9823 12.2972 12.4552 11.9824L4.36503 7.15472L10.6355 3.41283V5.10754C10.6355 5.66095 11.1551 6.10989 11.7956 6.10989H48.2489V8.19969H11.7958C11.1553 8.19969 10.6357 8.64863 10.6357 9.20204C10.6357 9.75545 11.1553 10.2044 11.7958 10.2044H49.4092C50.0498 10.2044 50.5692 9.75545 50.5692 9.20204V5.10754C50.5692 4.55398 50.0498 4.10518 49.4092 4.10518H12.956V1.50237C12.956 1.12978 12.7167 0.787822 12.3348 0.614548C11.9529 0.441718 11.491 0.465837 11.1364 0.677584L1.66403 6.33008C1.35028 6.51711 1.16309 6.82563 1.16309 7.15487C1.16309 7.4841 1.35028 7.79247 1.66403 7.97966Z" fill="#7A4FF6"/>
<path d="M54.297 10.2044H59.4507C60.0912 10.2044 60.6108 9.7555 60.6108 9.20208V5.10758C60.6108 4.55402 60.0912 4.10522 59.4507 4.10522H54.297C53.6563 4.10522 53.1367 4.55417 53.1367 5.10758V9.20208C53.1367 9.75564 53.6563 10.2044 54.297 10.2044ZM55.4572 6.10994H58.2906V8.19973H55.4572V6.10994Z" fill="#7A4FF6"/>
<path d="M64.3398 4.10522C63.6993 4.10522 63.1797 4.55417 63.1797 5.10758V9.20208C63.1797 9.7555 63.6993 10.2044 64.3398 10.2044C64.9804 10.2044 65.5 9.7555 65.5 9.20208V5.10758C65.5001 4.55402 64.9804 4.10522 64.3398 4.10522Z" fill="#7A4FF6"/>
</svg>
