<svg width="66" height="66" viewBox="0 0 66 66" fill="none" xmlns="http://www.w3.org/2000/svg">
<path d="M65.4999 64.087C65.4999 64.8672 64.8671 65.5 64.0868 65.5H1.91304C1.13276 65.5 0.5 64.8672 0.5 64.087V1.91318C0.5 1.1329 1.13276 0.500141 1.91304 0.500141C2.69332 0.500141 3.32608 1.1329 3.32608 1.91318V42.486C5.5389 38.1763 8.402 32.6092 8.96171 31.5648C10.47 28.7471 12.3612 28.7436 15.486 28.7594L16.0477 28.7601C20.5539 28.7601 21.7405 31.0776 22.454 35.6425C22.5478 36.2413 22.6438 36.9348 22.7472 37.6875C23.74 44.8853 24.8232 48.5352 25.9658 48.5352C27.6762 48.5352 28.883 42.8023 30.1601 36.7333C30.4844 35.192 30.8322 33.5382 31.2213 31.7877C32.9221 24.1311 36.7127 11.1861 42.9852 10.5155C44.3188 10.3712 45.6057 10.3829 46.7413 10.3934C49.4025 10.4203 50.8397 10.3748 51.5972 9.208C54.7503 4.34305 57.2411 0.5 64.087 0.5C64.8672 0.5 65.5 1.13276 65.5 1.91304C65.5 2.69332 64.8672 3.32608 64.087 3.32608C58.9915 3.32608 57.3025 5.60094 53.9687 10.7453C52.3322 13.2691 49.4647 13.247 46.7166 13.2195C45.6058 13.2092 44.4597 13.2001 43.2862 13.325C40.7023 13.6017 36.8226 19.6071 33.98 32.4004C33.5937 34.1404 33.2479 35.7832 32.9257 37.3149C31.0829 46.0739 29.9699 51.3611 25.9661 51.3611C21.7808 51.3611 20.7644 43.9937 19.9482 38.0739C19.8468 37.3398 19.7537 36.663 19.6627 36.0785C18.9899 31.7774 18.3083 31.5862 16.048 31.5862L15.4795 31.5855C12.3892 31.5697 12.1146 31.6642 11.4536 32.8992C10.6225 34.4491 4.38233 46.6173 3.32651 48.6772V62.6738H64.0868C64.8671 62.6738 65.4999 63.3067 65.4999 64.087ZM64.0868 11.8045H59.8477C59.0674 11.8045 58.4347 12.4372 58.4347 13.2175C58.4347 13.9978 59.0674 14.6305 59.8477 14.6305H64.0868C64.8671 14.6305 65.4999 13.9978 65.4999 13.2175C65.4999 12.4372 64.8671 11.8045 64.0868 11.8045ZM64.0868 21.6957H59.8477C59.0674 21.6957 58.4347 22.3285 58.4347 23.1088C58.4347 23.8891 59.0674 24.5218 59.8477 24.5218H64.0868C64.8671 24.5218 65.4999 23.8891 65.4999 23.1088C65.4999 22.3285 64.8671 21.6957 64.0868 21.6957ZM64.0868 31.587H59.8477C59.0674 31.587 58.4347 32.2198 58.4347 33.0001C58.4347 33.7804 59.0674 34.4131 59.8477 34.4131H64.0868C64.8671 34.4131 65.4999 33.7804 65.4999 33.0001C65.4999 32.2198 64.8671 31.587 64.0868 31.587ZM64.0868 41.4783H59.8477C59.0674 41.4783 58.4347 42.1111 58.4347 42.8914C58.4347 43.6716 59.0674 44.3044 59.8477 44.3044H64.0868C64.8671 44.3044 65.4999 43.6716 65.4999 42.8914C65.4999 42.1111 64.8671 41.4783 64.0868 41.4783ZM64.0868 51.3696H59.8477C59.0674 51.3696 58.4347 52.0024 58.4347 52.7826C58.4347 53.5629 59.0674 54.1957 59.8477 54.1957H64.0868C64.8671 54.1957 65.4999 53.5629 65.4999 52.7826C65.4999 52.0024 64.8671 51.3696 64.0868 51.3696Z" fill="#7A4FF6"/>
</svg>
